<svg xmlns="http://www.w3.org/2000/svg" viewBox="0 0 206.87 206.87"><g id="Ebene_2" data-name="Ebene 2"><g id="Ebene_1-2" data-name="Ebene 1"><circle cx="103.44" cy="103.44" r="95.94" transform="translate(-31.71 159.42) rotate(-67.5)" fill="#fdcf5c"/><path d="M103.44,15A88.44,88.44,0,1,1,15,103.44,88.43,88.43,0,0,1,103.44,15m0-15A103.44,103.44,0,1,0,206.87,103.44,103.55,103.55,0,0,0,103.44,0Z" fill="#f2f2f2"/><path d="M144.07,97.05l-6.31-6.23,5.18-5.24,15.35,15.34-15.37,15.35L138,111.33c2-1.92,4.16-4,6.34-6.11l-.28-.52c-1.58.16-3.17.23-4.74.48a38.17,38.17,0,0,0-31.87,33,36.36,36.36,0,0,0-.27,4.67c0,7.76,0,15.52,0,23.28a8,8,0,0,1-.24,2.07,3.56,3.56,0,0,1-3.76,2.54,3.61,3.61,0,0,1-3.3-3,6.44,6.44,0,0,1-.13-1.16c0-8.81-.22-17.63.16-26.43.86-19.84,15.36-37,34.74-41.58C137.72,97.87,140.87,97.56,144.07,97.05Z" fill="#fff"/><path d="M99.45,64.1l-6.24,6.38-5.12-5.14,15.29-15.27,15.4,15.43-5,5-6.22-6.3-.31.1v1.54q0,22.82,0,45.62a3.93,3.93,0,0,1-.86,2.67c-1,1.29-1.87,2.68-2.87,4.14-.87-1.28-1.66-2.6-2.62-3.79A5.12,5.12,0,0,1,99.74,111c0-15.13,0-30.26,0-45.39V64.28Z" fill="#fff"/><path d="M62.81,105l6.31,6.18-5.18,5.17L48.58,101,64,85.59l5.26,5.26-6.33,6.27c2.8.4,5.6.61,8.31,1.22,13.32,3,23.36,10.5,30.18,22.3a1.81,1.81,0,0,1,.17,1.36c-1.14,3.1-2.35,6.18-3.47,9.11-6.08-16-17.76-24.94-35-26.48Z" fill="#fff"/></g></g></svg>