<svg xmlns="http://www.w3.org/2000/svg" width="300" height="199" viewBox="0 0 300 199">
  <g id="freshpak3" transform="translate(-855 -187)">
    <rect id="Rechteck_189" data-name="Rechteck 189" width="300" height="199" transform="translate(855 187)" fill="#fff"/>
    <path id="Pfad_81" data-name="Pfad 81" d="M564.219,268.576l20.123,6.713-.978,79.538" transform="translate(334.136 -60.89)" fill="none" stroke="#fdcf5c" stroke-linecap="round" stroke-linejoin="round" stroke-width="10"/>
    <path id="Pfad_82" data-name="Pfad 82" d="M680.253,381.822l46.972-64.194,20.122,6.713" transform="translate(393.916 -35.619)" fill="none" stroke="#fdcf5c" stroke-linecap="round" stroke-linejoin="round" stroke-width="10"/>
    <line id="Linie_4" data-name="Linie 4" x2="194.039" y2="64.733" transform="translate(920.393 218.232)" fill="none" stroke="#fdcf5c" stroke-linecap="round" stroke-linejoin="round" stroke-width="5"/>
    <line id="Linie_6" data-name="Linie 6" x2="277.281" transform="translate(867.719 361.363)" fill="none" stroke="#000" stroke-linecap="round" stroke-linejoin="round" stroke-width="2"/>
    <line id="Linie_7" data-name="Linie 7" x2="189.4" transform="translate(911.659 367.424)" fill="none" stroke="#000" stroke-linecap="round" stroke-linejoin="round" stroke-width="1"/>
    <path id="Pfad_89" data-name="Pfad 89" d="M591.168,327s90.154,81.063-41.668,32.577" transform="translate(326.552 -30.79)" fill="none" stroke="#fdcf5c" stroke-linecap="round" stroke-linejoin="round" stroke-width="5"/>
    <g id="Gruppe_60" data-name="Gruppe 60" transform="translate(945.205 265.58)">
      <path id="Pfad_94" data-name="Pfad 94" d="M713.88,382.565a7.736,7.736,0,0,0-2.888-4.159,10.346,10.346,0,0,0-4.78-2.132,17.032,17.032,0,0,0-4.23.015,4.52,4.52,0,0,1-3.364-.589q-2.861-2.109-5.714-4.249c-1.8-1.349-3.582-2.706-5.377-4.07q-2.262-1.707-4.54-3.42a2.619,2.619,0,0,0-.518-3.061c-.812-.965-1.544-2.014-2.344-3.006q-4-5.016-8.031-10.008c-1.442-1.811-2.93-3.591-4.377-5.388-2.726-3.365-5.476-6.708-8.15-10.119-1.8-2.274-3.477-4.649-5.232-6.955-1.552-2.032-3.029-4.133-4.726-6.043a53.59,53.59,0,0,0-4.3-3.879,33.45,33.45,0,0,0-3.006-2.6c-1.449-1-3.035-1.811-4.531-2.733a20.039,20.039,0,0,0-8.365-2.9c-1.664-.191-3.353-.2-5.017-.388a17.227,17.227,0,0,0-6,.42c-2.359.6-4.74,1.2-7.073,1.936a19.781,19.781,0,0,0-3.871,1.683,20,20,0,0,0-5.012,4.832,28.559,28.559,0,0,0-4.83,8.008,49.833,49.833,0,0,0-2,7.088,18.058,18.058,0,0,0,.144,8.718c.47,1.808.933,3.629,1.488,5.421a20.508,20.508,0,0,0,2.173,5.167c1.315,2.055,2.508,4.174,3.746,6.264a20.785,20.785,0,0,0,4.024,5.25c1.261,1.108,2.558,2.164,3.868,3.224a25.847,25.847,0,0,0,8.912,4.888,57.054,57.054,0,0,0,8.946,1.992c2.17.273,4.355.5,6.5.915,3.471.647,6.973,1.129,10.481,1.515,3.115.347,6.241.585,9.3,1.2,4.641.939,9.232,2.136,13.825,3.285a15.231,15.231,0,0,0,5.73.435,1.637,1.637,0,0,1,.845.167c3.6,2.03,7.2,4.1,10.8,6.14a17.184,17.184,0,0,1,3.72,2.435,2.614,2.614,0,0,1,.87,1.655c.132,1.124.332,2.242.412,3.377a7.934,7.934,0,0,0,4.429,6.514c3.5,1.959,6.932,1.276,10.135-.78a6.426,6.426,0,0,0,2.6-4.647,3.516,3.516,0,0,1,1.279-2.25c.639-.517,1.3-1.041,1.906-1.6A7.114,7.114,0,0,0,713.88,382.565Zm-36.621-7.32a32.131,32.131,0,0,1-4.932.606,17.556,17.556,0,0,1-3.786-.755c-3.4-.818-6.815-1.621-10.2-2.48a68.786,68.786,0,0,0-11.152-1.711,101.372,101.372,0,0,1-11.013-1.526c-2.247-.45-4.542-.691-6.827-.961a48.156,48.156,0,0,1-9.281-2.138,17.685,17.685,0,0,1-5.358-2.859c-1.723-1.383-3.5-2.708-5.182-4.156a20.693,20.693,0,0,1-3.921-5.308c-1.245-2.109-2.55-4.191-3.746-6.346a13.75,13.75,0,0,1-1.17-2.892c-.679-2.311-1.271-4.638-1.9-6.961a14.051,14.051,0,0,1,.211-6.615,34.854,34.854,0,0,1,2.788-8.441,27.015,27.015,0,0,1,3.635-5.221c.506-.632,1.076-1.223,1.6-1.83a10.574,10.574,0,0,1,4.718-3.029,68.889,68.889,0,0,1,8.679-2.3,12.43,12.43,0,0,1,3.588-.071c2.309.247,4.612.426,6.9.727a10.763,10.763,0,0,1,3.814,1.4c1.092.62,2.191,1.224,3.318,1.792a20.885,20.885,0,0,1,4.408,3.3c1.044.909,2.068,1.874,3.138,2.761a25.739,25.739,0,0,1,4.179,4.644c2.462,3.329,4.88,6.69,7.412,9.964,2.43,3.12,4.974,6.156,7.468,9.237,1.87,2.3,3.729,4.632,5.579,6.943q3.741,4.621,7.447,9.244c.579.729,1.13,1.447,1.714,2.161.177.215.212.374.029.6a3.134,3.134,0,0,0-.347,3.408c.274.676.641,1.321,1.009,2.049-.227.124-.479.27-.73.417a10.464,10.464,0,0,0-1.127.683,2.368,2.368,0,0,0-.908,2.59c.139.688.38,1.367.553,2.052C678.061,374.939,677.984,375.136,677.26,375.245Zm32.378,12.223c-.753.683-1.565,1.311-2.323,2.008A6,6,0,0,0,705.4,392.7c-.065.332-.191.658-.235.98a3.649,3.649,0,0,1-2.468,2.927,5.726,5.726,0,0,1-6.1-.742,4.722,4.722,0,0,1-1.914-3.57c-.055-1.159-.238-2.32-.388-3.482a6.179,6.179,0,0,0-2.429-3.917,34.031,34.031,0,0,0-5.236-3.218c-2.165-1.247-4.341-2.465-6.512-3.7-.08-.047-.133-.117-.236-.188a3.34,3.34,0,0,0,1.394-2.711,25.31,25.31,0,0,0-.421-3.186,3.99,3.99,0,0,0,2.689-3.247c1.214.894,2.356,1.761,3.514,2.632,2.092,1.559,4.165,3.127,6.238,4.7.82.611,1.679,1.2,2.468,1.852a8.156,8.156,0,0,0,6.785,1.821,7.532,7.532,0,0,1,5.89,1.115,8.031,8.031,0,0,1,1.85,1.936A3.828,3.828,0,0,1,709.638,387.468Z" transform="translate(-595.139 -306.785)"/>
      <path id="Pfad_95" data-name="Pfad 95" d="M676.125,374.1a32.128,32.128,0,0,1-4.932.606,17.554,17.554,0,0,1-3.786-.755c-3.4-.818-6.815-1.621-10.2-2.48a68.787,68.787,0,0,0-11.152-1.711,101.37,101.37,0,0,1-11.012-1.526c-2.247-.45-4.543-.691-6.828-.961a48.157,48.157,0,0,1-9.281-2.138,17.685,17.685,0,0,1-5.358-2.859c-1.723-1.383-3.5-2.708-5.182-4.156a20.693,20.693,0,0,1-3.921-5.308c-1.246-2.109-2.55-4.191-3.746-6.346a13.763,13.763,0,0,1-1.17-2.892c-.679-2.311-1.271-4.638-1.9-6.961a14.05,14.05,0,0,1,.211-6.615,34.849,34.849,0,0,1,2.788-8.441,27.019,27.019,0,0,1,3.635-5.221c.506-.632,1.076-1.223,1.6-1.83a10.575,10.575,0,0,1,4.718-3.029,68.891,68.891,0,0,1,8.679-2.3,12.429,12.429,0,0,1,3.588-.071c2.309.247,4.612.426,6.9.727a10.764,10.764,0,0,1,3.814,1.4c1.092.62,2.191,1.224,3.318,1.792a20.883,20.883,0,0,1,4.408,3.3c1.044.909,2.068,1.874,3.138,2.761a25.739,25.739,0,0,1,4.179,4.644c2.462,3.329,4.88,6.69,7.412,9.964,2.43,3.12,4.974,6.156,7.469,9.237,1.87,2.3,3.729,4.632,5.579,6.943q3.741,4.621,7.447,9.244c.579.729,1.13,1.447,1.714,2.161.177.215.212.374.029.6a3.134,3.134,0,0,0-.347,3.408c.274.676.641,1.321,1.009,2.049-.227.124-.479.27-.73.417a10.476,10.476,0,0,0-1.127.683,2.368,2.368,0,0,0-.908,2.59c.139.688.38,1.367.553,2.052C676.927,373.794,676.85,373.991,676.125,374.1Z" transform="translate(-594.005 -305.64)" fill="#a55926" stroke="#000" stroke-miterlimit="10" stroke-width="1"/>
    </g>
  </g>
</svg>
