<svg xmlns="http://www.w3.org/2000/svg" width="300" height="199" viewBox="0 0 300 199">
  <g id="freshpak2" transform="translate(-473 -187)">
    <rect id="Rechteck_188" data-name="Rechteck 188" width="300" height="199" transform="translate(473 187)" fill="#fff"/>
    <path id="Pfad_83" data-name="Pfad 83" d="M318.5,318.5h21.213l24.243,75.76" transform="translate(177.541 -35.169)" fill="none" stroke="#fdcf5c" stroke-linecap="round" stroke-linejoin="round" stroke-width="10"/>
    <path id="Pfad_84" data-name="Pfad 84" d="M457.5,394.26l24.243-75.76h21.213" transform="translate(249.154 -35.169)" fill="none" stroke="#fdcf5c" stroke-linecap="round" stroke-linejoin="round" stroke-width="10"/>
    <line id="Linie_5" data-name="Linie 5" x2="165.157" transform="translate(541.497 362.121)" fill="none" stroke="#fdcf5c" stroke-linecap="round" stroke-linejoin="round" stroke-width="5"/>
    <g id="Gruppe_57" data-name="Gruppe 57" transform="translate(518.836 227.268)">
      <path id="Pfad_85" data-name="Pfad 85" d="M542.508,340.593C541.117,307.822,494.89,281.5,438.026,281.5s-103.091,26.322-104.482,59.093" transform="translate(-333.544 -281.5)" fill="none" stroke="#fdcf5c" stroke-linecap="round" stroke-linejoin="round" stroke-width="5"/>
    </g>
    <path id="Pfad_86" data-name="Pfad 86" d="M401.867,291.938c2.235,1.549,4.39,3.039,6.543,4.533.985.683,1.986,1.346,2.93,2.08a1,1,0,0,1,.3.9c-1.2,2.229-.8,4.426.073,6.609,1.424,3.549,3,7.041,4.291,10.638,1.371,3.827,1.58,7.726-.355,11.491-2.094,4.07-5.577,6.708-9.428,9.164l-6.378-10.365c.391-.292.745-.562,1.1-.827,2.7-2,3.556-4.3,2.576-7.512a42.464,42.464,0,0,0-2.126-5.38c-1.53-3.312-3-6.626-3.149-10.352A17.154,17.154,0,0,1,401.867,291.938Z" transform="translate(218.621 -48.854)" fill="#fdcf5c"/>
    <path id="Pfad_87" data-name="Pfad 87" d="M427.458,337.478l-6.441-10.49c.577-.474,1.092-.874,1.582-1.3a5.9,5.9,0,0,0,2.026-6.468A56.225,56.225,0,0,0,422.3,313.3c-1.4-3.279-2.74-6.561-2.927-10.191a17.153,17.153,0,0,1,3.693-11.147l10,6.955c-2.014,3.33-.862,6.443.485,9.55,1.153,2.658,2.377,5.29,3.4,8,2.447,6.5,1.1,12.164-4.123,16.79C431.161,334.724,429.332,336.011,427.458,337.478Z" transform="translate(229.503 -48.844)" fill="#fdcf5c"/>
    <path id="Pfad_88" data-name="Pfad 88" d="M383.978,337.36c-2.28-3.517-4.485-6.915-6.723-10.364.583-.453,1.1-.845,1.611-1.252a6.018,6.018,0,0,0,2.192-7.132c-.858-2.479-1.988-4.864-3-7.288-1.686-4.029-2.746-8.146-1.7-12.54a18.938,18.938,0,0,1,3.258-6.849c.85.612,1.629,1.17,2.4,1.729,2.2,1.586,4.4,3.156,6.57,4.779.279.209.582.8.476,1.041a8.306,8.306,0,0,0,.161,6.665c.933,2.415,2.1,4.743,2.982,7.176a48.919,48.919,0,0,1,2.053,6.987,12.661,12.661,0,0,1-2.736,10.555A28.2,28.2,0,0,1,383.978,337.36Z" transform="translate(207.135 -48.855)" fill="#fdcf5c"/>
    <g id="Gruppe_59" data-name="Gruppe 59" transform="translate(558.649 294.999)">
      <path id="Pfad_92" data-name="Pfad 92" d="M489.491,366.5a7.747,7.747,0,0,0-4.2-2.833,10.359,10.359,0,0,0-5.227-.258,17.044,17.044,0,0,0-3.94,1.545,4.526,4.526,0,0,1-3.349.667c-2.288-.621-4.576-1.258-6.864-1.894-2.167-.606-4.318-1.227-6.485-1.849-1.818-.515-3.636-1.03-5.47-1.545a2.62,2.62,0,0,0-1.591-2.667c-1.106-.606-2.167-1.318-3.273-1.955-3.7-2.152-7.394-4.3-11.106-6.424-2-1.167-4.03-2.288-6.031-3.439-3.758-2.152-7.531-4.273-11.258-6.485-2.5-1.47-4.924-3.076-7.394-4.591-2.182-1.333-4.318-2.758-6.591-3.924a53.825,53.825,0,0,0-5.409-2.061,33.329,33.329,0,0,0-3.742-1.333c-1.712-.409-3.485-.591-5.212-.909a20.053,20.053,0,0,0-8.849.318c-1.621.424-3.2,1.03-4.818,1.455a17.225,17.225,0,0,0-5.44,2.561c-1.985,1.409-3.985,2.833-5.894,4.364a15.762,15.762,0,0,0-5.924,9.288,28.528,28.528,0,0,0-1.606,9.212,49.635,49.635,0,0,0,.7,7.334,18.032,18.032,0,0,0,3.288,8.076c1.091,1.515,2.182,3.046,3.349,4.515a20.428,20.428,0,0,0,3.894,4.03c1.97,1.44,3.849,2.985,5.758,4.485a20.775,20.775,0,0,0,5.652,3.44c1.576.576,3.167,1.091,4.773,1.606a25.841,25.841,0,0,0,10.076,1.333,57.142,57.142,0,0,0,9.061-1.379c2.121-.53,4.243-1.106,6.394-1.5,3.47-.652,6.909-1.47,10.319-2.379,3.03-.8,6.03-1.712,9.106-2.242,4.667-.8,9.379-1.349,14.076-1.939a15.248,15.248,0,0,0,5.5-1.667,1.632,1.632,0,0,1,.849-.151c4.091.591,8.2,1.212,12.288,1.818a17.129,17.129,0,0,1,4.349.924,2.607,2.607,0,0,1,1.409,1.227c.53,1,1.121,1.97,1.606,3a7.935,7.935,0,0,0,6.485,4.47c3.97.561,6.924-1.318,9.167-4.394a6.423,6.423,0,0,0,.742-5.273,3.519,3.519,0,0,1,.379-2.561c.409-.712.833-1.439,1.2-2.182A7.112,7.112,0,0,0,489.491,366.5ZM452.7,372.928a32.12,32.12,0,0,1-4.379,2.349,17.529,17.529,0,0,1-3.8.667c-3.47.47-6.94.955-10.409,1.379a68.782,68.782,0,0,0-11.016,2.439,101.083,101.083,0,0,1-10.818,2.561c-2.258.394-4.485,1-6.712,1.576a48.264,48.264,0,0,1-9.425,1.364,17.722,17.722,0,0,1-6.031-.727c-2.106-.667-4.243-1.258-6.333-2A20.677,20.677,0,0,1,378.2,379c-1.924-1.515-3.894-2.985-5.788-4.561a13.817,13.817,0,0,1-2.136-2.273c-1.47-1.909-2.864-3.864-4.288-5.8a14.047,14.047,0,0,1-2.2-6.243,34.89,34.89,0,0,1-.455-8.879,27.079,27.079,0,0,1,1.5-6.182c.242-.773.561-1.53.833-2.288a10.571,10.571,0,0,1,3.3-4.53,68.82,68.82,0,0,1,7.258-5.288,12.458,12.458,0,0,1,3.318-1.364c2.242-.606,4.455-1.273,6.7-1.818a10.76,10.76,0,0,1,4.061-.076c1.242.182,2.485.348,3.743.47a20.938,20.938,0,0,1,5.3,1.485c1.3.47,2.606,1,3.924,1.439a25.7,25.7,0,0,1,5.576,2.818c3.5,2.212,6.97,4.47,10.516,6.606,3.394,2.03,6.864,3.94,10.3,5.909,2.576,1.47,5.152,2.97,7.712,4.455,3.439,1.97,6.864,3.955,10.288,5.924.8.47,1.576.939,2.379,1.394.242.136.333.273.242.545a3.138,3.138,0,0,0,.909,3.3c.5.53,1.076,1,1.682,1.546-.167.2-.348.424-.53.651a10.643,10.643,0,0,0-.8,1.046,2.369,2.369,0,0,0,.091,2.742c.379.591.849,1.136,1.258,1.712C453.338,372.352,453.338,372.565,452.7,372.928Zm34.607-.318c-.455.909-.985,1.788-1.439,2.712a6.009,6.009,0,0,0-.621,3.7c.061.333.061.682.136,1a3.648,3.648,0,0,1-1.242,3.621,5.724,5.724,0,0,1-5.955,1.515,4.72,4.72,0,0,1-3.076-2.636c-.47-1.061-1.061-2.076-1.621-3.106a6.184,6.184,0,0,0-3.682-2.773,34.227,34.227,0,0,0-6.046-1.106c-2.47-.379-4.94-.727-7.409-1.091-.091-.015-.167-.061-.288-.091a3.333,3.333,0,0,0,.318-3.03,25.038,25.038,0,0,0-1.545-2.818,3.99,3.99,0,0,0,1.333-4c1.455.394,2.833.788,4.227,1.182q3.773,1.046,7.515,2.121c.985.273,2,.515,2.97.833a8.159,8.159,0,0,0,6.985-.758,7.543,7.543,0,0,1,5.894-1.091,8.065,8.065,0,0,1,2.424,1.136A3.828,3.828,0,0,1,487.309,372.61Z" transform="translate(-359.82 -326.201)"/>
      <path id="Pfad_93" data-name="Pfad 93" d="M451.545,371.792a32.12,32.12,0,0,1-4.379,2.349,17.529,17.529,0,0,1-3.8.667c-3.47.47-6.94.955-10.409,1.379a68.782,68.782,0,0,0-11.016,2.439,101.083,101.083,0,0,1-10.818,2.561c-2.258.394-4.485,1-6.712,1.576a48.264,48.264,0,0,1-9.425,1.364,17.722,17.722,0,0,1-6.031-.727c-2.106-.667-4.243-1.258-6.333-2a20.677,20.677,0,0,1-5.576-3.53c-1.924-1.515-3.894-2.985-5.788-4.561a13.817,13.817,0,0,1-2.136-2.273c-1.47-1.909-2.864-3.864-4.288-5.8a14.047,14.047,0,0,1-2.2-6.243,34.89,34.89,0,0,1-.455-8.879,27.079,27.079,0,0,1,1.5-6.182c.242-.773.561-1.53.833-2.288a10.571,10.571,0,0,1,3.3-4.53,68.816,68.816,0,0,1,7.258-5.288,12.458,12.458,0,0,1,3.318-1.364c2.242-.606,4.455-1.273,6.7-1.818a10.76,10.76,0,0,1,4.061-.076c1.242.182,2.485.348,3.743.47a20.935,20.935,0,0,1,5.3,1.485c1.3.47,2.606,1,3.924,1.439a25.7,25.7,0,0,1,5.576,2.818c3.5,2.212,6.97,4.47,10.516,6.606,3.394,2.03,6.864,3.94,10.3,5.909,2.576,1.47,5.152,2.97,7.712,4.455,3.439,1.97,6.864,3.955,10.288,5.924.8.47,1.576.939,2.379,1.394.242.136.333.273.242.545a3.138,3.138,0,0,0,.909,3.3c.5.53,1.076,1,1.682,1.546-.167.2-.348.424-.53.651a10.643,10.643,0,0,0-.8,1.046,2.369,2.369,0,0,0,.091,2.742c.379.591.849,1.136,1.258,1.712C452.182,371.216,452.182,371.428,451.545,371.792Z" transform="translate(-358.663 -325.064)" fill="#a55926" stroke="#000" stroke-miterlimit="10" stroke-width="1"/>
    </g>
  </g>
</svg>
