<svg xmlns="http://www.w3.org/2000/svg" viewBox="0 0 315.43 103.37"><g id="Ebene_2" data-name="Ebene 2"><g id="Ebene_1-2" data-name="Ebene 1"><path d="M31.29,23.39c-.08,0,2.38-3.78,2.57-4.07,2.25-3.39,4.6-6,8.69-6.9,3.79-.82,8.69.64,11.07,3.89a6.74,6.74,0,0,1,1,5.93c-.23.82-1.84,5.31-3.22,3.83a35.09,35.09,0,0,0-4.34-4.28C43.32,19,36.93,19.54,34.62,24.13Z" fill="#69a046" stroke="#1d1e1c" stroke-linecap="round" stroke-linejoin="round"/><path d="M28.76,23.27c.75.09,2.24-4.58,2.4-5.23a11.22,11.22,0,0,0-.11-5.55C28.62,4,18.87,0,10.67.56,6.82.83.18,3,.51,7.92a5.33,5.33,0,0,0,2,3.57,11.73,11.73,0,0,0,3.67,2,5.45,5.45,0,0,0,3.36.41c2.07-.59,3.42-2.83,4.27-4.66a18.85,18.85,0,0,0-.49,3.91,3.56,3.56,0,0,0,.26,1.52,2.64,2.64,0,0,0,2.78,1.27c2.06-.32,3.92-3.45,6.11-2.75,2.67.86,3.5,7.43,3.77,9.78Z" fill="#69a046" stroke="#1d1e1c" stroke-linecap="round" stroke-linejoin="round"/><path d="M32.77,71.37A4.78,4.78,0,0,1,33,65.18,9.84,9.84,0,0,1,29.74,58a10.42,10.42,0,0,1,7-9.54,4.8,4.8,0,0,1-.08-.85,5.46,5.46,0,0,1,5.56-5.18,16.77,16.77,0,0,0-.3-7.16c-1.75-6.17-8.1-10-14.7-9.87C9,25.84,12.6,50,15.33,61.71A229.1,229.1,0,0,0,21.9,84.12c2.06,6,5.28,19.32,7.83,18.73,1.5-.35.21-3.18,0-6.13C29.12,88.11,30.55,79.64,32.77,71.37Z" fill="#f08714" stroke="#1d1e1c" stroke-linecap="round" stroke-linejoin="round"/><path d="M62.59,89.38a17.38,17.38,0,0,1-6.75-1.18,9.63,9.63,0,0,1-4.59-4.08,22.67,22.67,0,0,1-2.59-8.2,90.8,90.8,0,0,1-.83-13.54,78.11,78.11,0,0,1,1.18-15,24.24,24.24,0,0,1,3.38-9A11.37,11.37,0,0,1,57.68,34a19.81,19.81,0,0,1,7-1.18,12.8,12.8,0,0,1,6.08,1.22c1.49.81,2.24,1.74,2.24,2.79A9.8,9.8,0,0,1,72.79,39a18.78,18.78,0,0,1-.55,2,7.4,7.4,0,0,0-2.66-1.37A12.23,12.23,0,0,0,66,39.15a11.13,11.13,0,0,0-5.14,1.1,8.35,8.35,0,0,0-3.53,3.68,21.65,21.65,0,0,0-2,7,79.55,79.55,0,0,0-.63,11,98,98,0,0,0,.51,11.22,20.67,20.67,0,0,0,1.57,6.4,5.75,5.75,0,0,0,2.59,2.86,7.93,7.93,0,0,0,3.42.71,7.52,7.52,0,0,0,2.35-.31A5,5,0,0,0,66.63,82a2.87,2.87,0,0,0,.75-.78V61.67H61.57v-4c0-.89.5-1.34,1.49-1.34H73.34V85.85A16.7,16.7,0,0,1,71,87.46a15.12,15.12,0,0,1-3.53,1.37A18.88,18.88,0,0,1,62.59,89.38Z" fill="#fff"/><path d="M78.54,88.6V43.3c.22-.71.6-1.06,1.13-1.06h3.18c.53,0,.88.35,1.06,1.06V87.53a.94.94,0,0,1-.23.73,2.78,2.78,0,0,1-1.36.27C81.57,88.57,80.31,88.6,78.54,88.6ZM80.4,69.79c-.66,0-1-.11-1.06-.34a5.82,5.82,0,0,1-.07-1.12V43.49c0-.13,0-.37,0-.72s.27-.53.76-.53h6.16a15.41,15.41,0,0,1,6.88,1.35,8.46,8.46,0,0,1,4,4.24,18.58,18.58,0,0,1,1.29,7.52,21,21,0,0,1-1,6.85,11.2,11.2,0,0,1-2.65,4.41A10.41,10.41,0,0,1,90.93,69a14.24,14.24,0,0,1-4.64.76Zm3.38-5h3a4.84,4.84,0,0,0,3.08-1,6.09,6.09,0,0,0,1.89-3.11,19.93,19.93,0,0,0,.66-5.67A18.2,18.2,0,0,0,92,50.71a5.12,5.12,0,0,0-1.63-2.81,4.77,4.77,0,0,0-3.14-1H83.78ZM96.16,88.73c-.4,0-.87,0-1.42,0L93,88.6A48.63,48.63,0,0,0,91.62,79a31.89,31.89,0,0,0-2.18-6.16,21.7,21.7,0,0,0-2.88-4.28A.91.91,0,0,1,87,67.4l2.92-1.59a1.17,1.17,0,0,1,1.12.6,28.93,28.93,0,0,1,3.58,4.93,34.2,34.2,0,0,1,2.72,6.53,40.53,40.53,0,0,1,1.59,9.53,1.22,1.22,0,0,1-.4,1A5.09,5.09,0,0,1,96.16,88.73Z" fill="#fff"/><path d="M103.25,88.6V43.3c.22-.71.59-1.06,1.12-1.06h15.9c0,1.45,0,2.51-.07,3.17a3.35,3.35,0,0,1-.26,1.33.73.73,0,0,1-.67.33H108.61V83.76H120c0,1.5,0,2.59-.06,3.28a3,3,0,0,1-.27,1.29.86.86,0,0,1-.73.27ZM104,65.81v-4.9h14.63a36.17,36.17,0,0,1-.13,4c-.09.61-.38.92-.86.92Z" fill="#fff"/><path d="M124.44,88.6V43.3c.22-.71.6-1.06,1.13-1.06h15.89c0,1.45,0,2.51-.07,3.17a3.35,3.35,0,0,1-.26,1.33.7.7,0,0,1-.66.33H129.8V83.76h11.39c0,1.5,0,2.59-.06,3.28a2.86,2.86,0,0,1-.27,1.29.83.83,0,0,1-.72.27Zm.73-22.79v-4.9h14.64a35.27,35.27,0,0,1-.14,4c-.09.61-.37.92-.86.92Z" fill="#fff"/><path d="M145.57,88.6V43.3c0-.71.37-1.06,1.12-1.06l4.24,1.06L150.2,51c.09.62.17,1.48.23,2.59s.13,2.33.17,3.67.09,2.75.13,4.21.09,2.85.13,4.17.07,2.5.07,3.51V87.53a.94.94,0,0,1-.23.73,2.69,2.69,0,0,1-1.33.27C148.64,88.57,147.37,88.6,145.57,88.6Zm18.61,0-7.62-18.22c-.27-.7-.63-1.71-1.09-3s-1-2.77-1.49-4.4-1.07-3.28-1.63-4.94-1.06-3.19-1.52-4.6-1-3-1.49-4.7l-3.05-3.32.4-3.17h4.11l7.42,17.88c.3.75.69,1.8,1.15,3.14s1,2.83,1.5,4.44,1,3.22,1.58,4.83,1,3.11,1.46,4.47,1,2.88,1.52,4.51l3.25,3.91-.53,3.18Zm4,0-4.24-1.07.6-8.87c-.09-.66-.16-1.53-.2-2.62s-.09-2.27-.13-3.57-.09-2.64-.14-4-.08-2.68-.1-3.94,0-2.37,0-3.34V43.3a.94.94,0,0,1,.23-.73,2.91,2.91,0,0,1,1.36-.27q1.13-.06,3.78-.06V87.53C169.28,88.24,168.9,88.6,168.15,88.6Z" fill="#fff"/><path d="M175.5,88.6V34.91c.26-.84.7-1.26,1.33-1.26h3.77c.63,0,1,.42,1.25,1.26V87.34a1.11,1.11,0,0,1-.27.86,3.49,3.49,0,0,1-1.61.32C179.08,88.57,177.59,88.6,175.5,88.6Zm2.2-22.3q-1.19,0-1.26-.39a7,7,0,0,1-.08-1.33V35.14c0-.16,0-.44,0-.86s.32-.63.9-.63h7.3a18.21,18.21,0,0,1,8.16,1.61,10,10,0,0,1,4.75,5A22,22,0,0,1,199,49.19a24.91,24.91,0,0,1-1.14,8.13,13.28,13.28,0,0,1-3.13,5.22,12.37,12.37,0,0,1-4.6,2.86,16.55,16.55,0,0,1-5.49.9Zm4-5.88h3.61A5.74,5.74,0,0,0,189,59.28a7.28,7.28,0,0,0,2.24-3.69,23.59,23.59,0,0,0,.78-6.71,21.31,21.31,0,0,0-.55-5.18,6.15,6.15,0,0,0-1.92-3.34,5.67,5.67,0,0,0-3.73-1.14H181.7Zm14.67,28.33c-.47,0-1,0-1.68,0s-1.35-.06-2.08-.11A58.23,58.23,0,0,0,191,77.25a38.66,38.66,0,0,0-2.59-7.3A25.29,25.29,0,0,0,185,64.89a1.07,1.07,0,0,1,.48-1.41l3.45-1.89a1.4,1.4,0,0,1,1.33.71,34.11,34.11,0,0,1,4.24,5.85,40.58,40.58,0,0,1,3.22,7.73,47.2,47.2,0,0,1,1.88,11.3,1.42,1.42,0,0,1-.47,1.22A6.14,6.14,0,0,1,196.37,88.75Z" fill="#fff"/><path d="M205,88.73c-.36,0-.84,0-1.46-.07l-1.92-.13L213.44,43c.13-.61.81-.92,2.05-.92.44,0,.89,0,1.36.06s.85.09,1.16.14L229.86,87.6a.71.71,0,0,1-.3.83,4.19,4.19,0,0,1-2,.3c-.39,0-.85,0-1.35,0l-1.82-.09-6.23-26.1c-.35-1.5-.68-3-1-4.57s-.59-3-.83-4.47-.41-2.68-.5-3.74c-.09,1.06-.25,2.31-.49,3.74s-.52,2.93-.83,4.47-.67,3.07-1.06,4.57l-5.9,25.17a1.25,1.25,0,0,1-.53.79A4.32,4.32,0,0,1,205,88.73Zm3.44-11.92V71.9H224.3v4.91Z" fill="#fff"/><path d="M233.11,88.6V43.49a1.19,1.19,0,0,1,.36-.92,2.23,2.23,0,0,1,1.43-.33h6.55a18.58,18.58,0,0,1,4,.43A9.82,9.82,0,0,1,249,44.19a8,8,0,0,1,2.59,3.08,11.78,11.78,0,0,1,1,5.23,14.74,14.74,0,0,1-1,5.89,8.9,8.9,0,0,1-2.45,3.42,6.07,6.07,0,0,1-2.92,1.35,10.55,10.55,0,0,1,2.49.5,7.62,7.62,0,0,1,2.58,1.46,7.31,7.31,0,0,1,2,2.88,13,13,0,0,1,.76,4.83,25.06,25.06,0,0,1-.63,5.9,15.21,15.21,0,0,1-1.79,4.44,11.5,11.5,0,0,1-2.75,3.07A10.58,10.58,0,0,1,245.43,88a13.48,13.48,0,0,1-4,.57Zm5.5-27.42h3.24a4.09,4.09,0,0,0,2.48-.8,5.18,5.18,0,0,0,1.73-2.51,12.93,12.93,0,0,0,.63-4.38,9.54,9.54,0,0,0-.7-4.1,3.77,3.77,0,0,0-1.82-1.89,5.87,5.87,0,0,0-2.38-.5h-3.18Zm0,22.71h3a4.94,4.94,0,0,0,2.35-.59,5.72,5.72,0,0,0,1.95-1.89,10.59,10.59,0,0,0,1.36-3.28,20.24,20.24,0,0,0,.49-4.83,15.2,15.2,0,0,0-.43-4.08A4.76,4.76,0,0,0,246.06,67a3.82,3.82,0,0,0-2-1,14.29,14.29,0,0,0-2.45-.2h-3Z" fill="#fff"/><path d="M258,88.6V43.49a1.19,1.19,0,0,1,.36-.92,2.23,2.23,0,0,1,1.43-.33h6.55a18.58,18.58,0,0,1,4,.43,9.82,9.82,0,0,1,3.57,1.52,8,8,0,0,1,2.59,3.08,11.78,11.78,0,0,1,1,5.23,14.74,14.74,0,0,1-1,5.89A8.9,8.9,0,0,1,274,61.81a6.07,6.07,0,0,1-2.92,1.35,10.55,10.55,0,0,1,2.49.5,7.62,7.62,0,0,1,2.58,1.46,7.31,7.31,0,0,1,2,2.88,13,13,0,0,1,.76,4.83,25.06,25.06,0,0,1-.63,5.9,15.21,15.21,0,0,1-1.79,4.44,11.5,11.5,0,0,1-2.75,3.07A10.58,10.58,0,0,1,270.33,88a13.48,13.48,0,0,1-4,.57Zm5.5-27.42h3.24a4.09,4.09,0,0,0,2.48-.8A5.18,5.18,0,0,0,271,57.87a12.93,12.93,0,0,0,.63-4.38,9.54,9.54,0,0,0-.7-4.1,3.77,3.77,0,0,0-1.82-1.89,5.87,5.87,0,0,0-2.38-.5h-3.18Zm0,22.71h3a4.94,4.94,0,0,0,2.35-.59,5.72,5.72,0,0,0,2-1.89,10.59,10.59,0,0,0,1.36-3.28,20.24,20.24,0,0,0,.49-4.83,15.2,15.2,0,0,0-.43-4.08A4.76,4.76,0,0,0,271,67a3.82,3.82,0,0,0-2-1,14.38,14.38,0,0,0-2.45-.2h-3Z" fill="#fff"/><path d="M282.91,88.6V44.69a4.22,4.22,0,0,1,.26-1.76c.18-.33.65-.53,1.43-.59s2-.1,3.81-.1V87.53a.84.84,0,0,1-.27.73,2.92,2.92,0,0,1-1.36.27C286.05,88.57,284.76,88.6,282.91,88.6Z" fill="#fff"/><path d="M291.78,47.27v-4c0-.71.38-1.06,1.13-1.06h22.52v4a1.06,1.06,0,0,1-.27.83,1.3,1.3,0,0,1-.86.23Zm9,41.33V43a2,2,0,0,1,1.06-.2H305a2.16,2.16,0,0,1,1.13.2v44.5a.9.9,0,0,1-.24.73,2.7,2.7,0,0,1-1.35.27C303.82,88.57,302.56,88.6,300.79,88.6Z" fill="#fff"/></g></g></svg>