<svg xmlns="http://www.w3.org/2000/svg" viewBox="0 0 206.87 206.87"><g id="Ebene_2" data-name="Ebene 2"><g id="Ebene_1-2" data-name="Ebene 1"><circle cx="103.44" cy="103.44" r="95.94" transform="translate(-31.71 159.42) rotate(-67.5)" fill="#fdcf5c"/><path d="M103.44,15A88.44,88.44,0,1,1,15,103.44,88.43,88.43,0,0,1,103.44,15m0-15A103.44,103.44,0,1,0,206.87,103.44,103.55,103.55,0,0,0,103.44,0Z" fill="#f2f2f2"/><path d="M103.42,149.48c-.92,0-1.84-.07-2.75,0-8.66.69-12.36-3.11-11.76-11.7a23.38,23.38,0,0,0-.52-5.94,27,27,0,0,0-7.75-14.45,34.26,34.26,0,0,1-8-12,32.92,32.92,0,0,1,8.08-36,32.33,32.33,0,0,1,24.19-9.13A33.05,33.05,0,0,1,136.07,88c1.73,11.12-1.35,20.84-9.29,28.84-4.12,4.16-7.09,8.87-8.21,14.64a50.09,50.09,0,0,0-.6,6c-.11,1.71.06,3.46-.17,5.16a8,8,0,0,1-7.75,6.83c-2.21.06-4.42,0-6.63,0Zm.06-6h5.9a2.26,2.26,0,0,0,2.57-2.59c0-1.13,0-2.27,0-3.4a33.81,33.81,0,0,1,1.59-10.66,36.31,36.31,0,0,1,9.16-14.46A25.78,25.78,0,0,0,130,88.07a27.06,27.06,0,1,0-52.09,14.19,30.75,30.75,0,0,0,7.48,11.37,33.27,33.27,0,0,1,9,17.3A52.21,52.21,0,0,1,95,141a2.19,2.19,0,0,0,2.43,2.46Z" fill="#fff"/><path d="M103.43,152.48h9.78a2.16,2.16,0,0,1,2.11,1.36,2,2,0,0,1-.38,2.32,4.28,4.28,0,0,1-1.69.81,4.54,4.54,0,0,1-1.28,0H94.34a6.17,6.17,0,0,1-1-.06,2.2,2.2,0,0,1-1.88-2.35,2.15,2.15,0,0,1,2.15-2.09c2.11,0,4.21,0,6.31,0Z" fill="#fff"/><path d="M103.39,164.14c-3.16,0-6.31,0-9.46,0a2.3,2.3,0,0,1-2.52-2.09,2.21,2.21,0,0,1,2.24-2.42c1.7,0,3.4,0,5.09,0,4.8,0,9.6,0,14.4,0a2.23,2.23,0,0,1,2.16,3.16,2.33,2.33,0,0,1-2.37,1.35Z" fill="#fff"/><path d="M132.12,65a2.46,2.46,0,0,1-2.31-1.26,2.18,2.18,0,0,1,.11-2.23,2.74,2.74,0,0,1,.4-.5c3-3,6-6,9-9a2.22,2.22,0,0,1,3.31-.11,2.28,2.28,0,0,1-.14,3.31c-3,3-5.93,6-8.93,8.91A6,6,0,0,1,132.12,65Z" fill="#fff"/><path d="M75,117a2.73,2.73,0,0,1,2.08,1.38,2.11,2.11,0,0,1-.13,2.29,3.67,3.67,0,0,1-.58.67c-2.85,2.86-5.7,5.73-8.58,8.57a3.57,3.57,0,0,1-1.4.88,2.13,2.13,0,0,1-2.47-1.08,2.21,2.21,0,0,1,.44-2.74c2.08-2.11,4.19-4.19,6.28-6.29.9-.9,1.76-1.83,2.7-2.67A10.65,10.65,0,0,1,75,117Z" fill="#fff"/><path d="M56.81,93.31c-2.19,0-4.37,0-6.55,0a2.14,2.14,0,0,1-2.06-1.53,2,2,0,0,1,.63-2.34,2.87,2.87,0,0,1,1.61-.6q6.39-.08,12.77,0a2.25,2.25,0,1,1,0,4.5c-2.13,0-4.25,0-6.38,0Z" fill="#fff"/><path d="M105.69,44.5c0,2.19,0,4.37,0,6.55a2.17,2.17,0,0,1-1.55,2.06,2.25,2.25,0,0,1-2.46-.79,1.71,1.71,0,0,1-.39-.87c0-4.66-.06-9.31,0-14a2,2,0,0,1,2.08-1.8,2.23,2.23,0,0,1,2.21,1.56,4.22,4.22,0,0,1,.11,1.12q0,3.07,0,6.14Z" fill="#fff"/><path d="M150.07,93.3c-2.21,0-4.42,0-6.63,0a2.15,2.15,0,0,1-2.11-1.88A2.18,2.18,0,0,1,142.61,89a3.18,3.18,0,0,1,1.18-.23q6.27,0,12.53,0a2.25,2.25,0,0,1,2.45,2.67,2.2,2.2,0,0,1-2.32,1.83c-2.13,0-4.26,0-6.38,0Z" fill="#fff"/><path d="M77.37,62.43a2.4,2.4,0,0,1-1.31,2.3,2.11,2.11,0,0,1-2.42-.32c-.57-.49-1.08-1-1.61-1.58l-7.61-7.61a2.23,2.23,0,0,1-.66-2.43,1.93,1.93,0,0,1,1.74-1.47,2.9,2.9,0,0,1,1.91.58c3.14,3,6.22,6.13,9.27,9.25A4.18,4.18,0,0,1,77.37,62.43Z" fill="#fff"/><path d="M143.43,128.55a2.69,2.69,0,0,1-1.38,2.08,2.2,2.2,0,0,1-2.37-.18,6.42,6.42,0,0,1-.48-.43q-4.39-4.41-8.8-8.8a2.31,2.31,0,0,1-.69-2.56,2.22,2.22,0,0,1,3.64-.85c1,.93,2,1.93,2.93,2.9,2,2,4.09,4.06,6.09,6.13A8.75,8.75,0,0,1,143.43,128.55Z" fill="#fff"/><path d="M103.56,166.75h4.6a2.27,2.27,0,1,1,0,4.52q-4.73,0-9.45,0a2.27,2.27,0,1,1,.07-4.52Z" fill="#fff"/></g></g></svg>