<svg xmlns="http://www.w3.org/2000/svg" width="208" height="231.5" viewBox="0 0 208 231.5">
  <defs>
    <style>
      .cls-1, .cls-3 {
        fill: #fdcf5c;
      }

      .cls-1 {
        stroke: #f2f2f2;
        stroke-width: 15px;
      }

      .cls-2, .cls-5 {
        fill: #fff;
      }

      .cls-4 {
        fill: #a7a7a7;
      }

      .cls-5 {
        font-size: 52px;
        font-family: YanoneKaffeesatz-Bold, Yanone Kaffeesatz;
        font-weight: 700;
      }
    </style>
  </defs>
  <g id="ProzessIcon1" transform="translate(-107.5 -255.5)">
    <g id="Gruppe_53" data-name="Gruppe 53" transform="translate(13 71)">
      <path id="Pfad_65" data-name="Pfad 65" class="cls-1" d="M96.5,0C149.8,0,193,42.981,193,96s-43.2,96-96.5,96S0,149.019,0,96,43.2,0,96.5,0Z" transform="translate(102 192)"/>
      <g id="Gruppe_43" data-name="Gruppe 43" transform="translate(137.795 224.297)">
        <g id="Gruppe_42" data-name="Gruppe 42">
          <path id="Pfad_52" data-name="Pfad 52" class="cls-2" d="M203.119,371.01a12.375,12.375,0,0,0-5.38.463,9.519,9.519,0,0,0-2.522,1.48,9.409,9.409,0,0,1-4.51,2.2c-2.373.344-3.993-.826-4.2-3.208a17.8,17.8,0,0,1,.14-3.906,2.4,2.4,0,0,1,2.163-2.056,17.759,17.759,0,0,1,2.94-.275q33.749-.022,67.5-.01,21.6,0,43.2.014a17.586,17.586,0,0,1,3.092.271,2.288,2.288,0,0,1,2.121,2.232,27.241,27.241,0,0,1,.169,3.482,3.368,3.368,0,0,1-4.194,3.467,7.666,7.666,0,0,1-4.251-2.034c-2.143-2.039-4.761-2.259-7.5-2.173-.583.019-.462.42-.463.751q-.007,5.885,0,11.769c0,5.72.081,11.441-.031,17.158-.1,5.218-2.637,9.023-7.272,11.405a12.2,12.2,0,0,1-5.654,1.258q-26.309.008-52.616.005c-3.341,0-6.681.024-10.022,0a12.421,12.421,0,0,1-12.023-8.759,15.026,15.026,0,0,1-.651-4.324c-.058-9.389-.033-18.779-.034-28.168Z" transform="translate(-186.454 -303.151)"/>
          <path id="Pfad_53" data-name="Pfad 53" class="cls-2" d="M208.015,351.923a11.7,11.7,0,0,1,1.8-5.068,12.36,12.36,0,0,1,10.956-6.091q12.755-.01,25.512,0h.969c-.538-2.157-1.035-4.189-1.553-6.217a3.266,3.266,0,0,1,3.336-4.357c1.645-.028,3.29-.019,4.935-.008a4,4,0,0,1,3.057,1.453,2.454,2.454,0,0,1,.538,2.4c-.5,1.907-.968,3.825-1.447,5.739-.071.287-.129.578-.221.987h1.038c8.832,0,17.665-.014,26.5,0a12.594,12.594,0,0,1,12.319,9.608c.121.482.186.979.292,1.549Z" transform="translate(-191.297 -295.17)"/>
          <path id="Pfad_54" data-name="Pfad 54" class="cls-2" d="M257.391,285.034c1.462,1.013,2.871,1.988,4.279,2.966.644.447,1.3.879,1.918,1.361a.655.655,0,0,1,.2.586,4.845,4.845,0,0,0,.047,4.323c.933,2.321,1.964,4.606,2.807,6.958a9.12,9.12,0,0,1-.232,7.516c-1.369,2.663-3.648,4.388-6.166,5.994l-4.172-6.778c.256-.192.488-.368.722-.541a4.028,4.028,0,0,0,1.684-4.914,27.836,27.836,0,0,0-1.389-3.519,17.864,17.864,0,0,1-2.06-6.771A11.227,11.227,0,0,1,257.391,285.034Z" transform="translate(-201.855 -285.032)"/>
          <path id="Pfad_55" data-name="Pfad 55" class="cls-2" d="M287.312,314.833l-4.213-6.861c.378-.311.715-.572,1.035-.853a3.861,3.861,0,0,0,1.325-4.23,36.907,36.907,0,0,0-1.518-3.873,19.585,19.585,0,0,1-1.915-6.666,11.22,11.22,0,0,1,2.415-7.291l6.539,4.549c-1.317,2.178-.564,4.213.317,6.246.754,1.738,1.555,3.46,2.221,5.232a9.218,9.218,0,0,1-2.7,10.981C289.734,313.031,288.538,313.873,287.312,314.833Z" transform="translate(-207.919 -285.038)"/>
          <path id="Pfad_56" data-name="Pfad 56" class="cls-2" d="M231.778,314.742l-4.4-6.779c.382-.3.721-.553,1.054-.819a3.935,3.935,0,0,0,1.434-4.664c-.561-1.621-1.3-3.181-1.963-4.767-1.1-2.635-1.795-5.328-1.11-8.2a12.388,12.388,0,0,1,2.13-4.479c.557.4,1.065.765,1.572,1.131,1.436,1.037,2.88,2.063,4.3,3.126.182.136.381.526.311.681a5.43,5.43,0,0,0,.105,4.359c.609,1.58,1.375,3.1,1.949,4.693a31.824,31.824,0,0,1,1.343,4.57,8.282,8.282,0,0,1-1.789,6.9A18.451,18.451,0,0,1,231.778,314.742Z" transform="translate(-195.454 -285.032)"/>
        </g>
      </g>
      <g id="Gruppe_3" data-name="Gruppe 3" transform="translate(189.584 292.133)">
        <g id="Gruppe_2" data-name="Gruppe 2">
          <path id="Pfad_1" data-name="Pfad 1" class="cls-3" d="M266.733,381.445c-.026-.006.809-1.285.873-1.382a4.673,4.673,0,0,1,2.951-2.343,3.9,3.9,0,0,1,3.759,1.32,2.284,2.284,0,0,1,.353,2.014c-.077.279-.623,1.8-1.094,1.3A12.065,12.065,0,0,0,272.1,380.9a2.89,2.89,0,0,0-4.237.792Z" transform="translate(-256.275 -373.671)"/>
          <path id="Pfad_2" data-name="Pfad 2" class="cls-3" d="M262.843,380.252c.256.032.763-1.555.814-1.776a3.741,3.741,0,0,0-.037-1.883c-.823-2.894-4.135-4.253-6.919-4.054-1.306.093-3.562.832-3.45,2.5a1.808,1.808,0,0,0,.667,1.213,3.969,3.969,0,0,0,1.244.668,1.877,1.877,0,0,0,1.141.14,2.731,2.731,0,0,0,1.452-1.583,6.339,6.339,0,0,0-.169,1.328,1.218,1.218,0,0,0,.09.515.892.892,0,0,0,.943.431c.7-.109,1.332-1.169,2.075-.932.907.29,1.191,2.522,1.279,3.319Z" transform="translate(-253.246 -372.52)"/>
          <g id="Gruppe_1" data-name="Gruppe 1" transform="translate(4.277 8.668)">
            <path id="Pfad_3" data-name="Pfad 3" class="cls-3" d="M265.445,399.31a1.624,1.624,0,0,1,.06-2.1,3.341,3.341,0,0,1-1.089-2.439,3.539,3.539,0,0,1,2.362-3.24,1.54,1.54,0,0,1-.027-.286,1.856,1.856,0,0,1,1.89-1.76,5.7,5.7,0,0,0-.1-2.431,4.966,4.966,0,0,0-4.992-3.353c-6.166.149-4.949,8.342-4.025,12.331a77.758,77.758,0,0,0,2.232,7.612c.7,2.038,1.792,6.56,2.659,6.358.508-.118.071-1.079,0-2.081A26.1,26.1,0,0,1,265.445,399.31Z" transform="translate(-258.761 -383.699)"/>
            <path id="Pfad_4" data-name="Pfad 4" class="cls-3" d="M265.445,399.31a1.624,1.624,0,0,1,.06-2.1,3.341,3.341,0,0,1-1.089-2.439,3.539,3.539,0,0,1,2.362-3.24,1.54,1.54,0,0,1-.027-.286,1.856,1.856,0,0,1,1.89-1.76,5.7,5.7,0,0,0-.1-2.431,4.966,4.966,0,0,0-4.992-3.353c-6.166.149-4.949,8.342-4.025,12.331a77.758,77.758,0,0,0,2.232,7.612c.7,2.038,1.792,6.56,2.659,6.358.508-.118.071-1.079,0-2.081A26.1,26.1,0,0,1,265.445,399.31Z" transform="translate(-258.761 -383.699)"/>
          </g>
        </g>
      </g>
    </g>
    <path id="Pfad_69" data-name="Pfad 69" class="cls-4" d="M29,0A29,29,0,1,1,0,29,29,29,0,0,1,29,0Z" transform="translate(183 429)"/>
    <text id="_1" data-name="1" class="cls-5" transform="translate(202 472)"><tspan x="0" y="0">1</tspan></text>
  </g>
</svg>
