<svg xmlns="http://www.w3.org/2000/svg" width="208" height="231.5" viewBox="0 0 208 231.5">
  <defs>
    <style>
      .cls-1, .cls-3 {
        fill: #fdcf5c;
      }

      .cls-1 {
        stroke: #f2f2f2;
        stroke-width: 15px;
      }

      .cls-2, .cls-5 {
        fill: #fff;
      }

      .cls-4 {
        fill: #a7a7a7;
      }

      .cls-5 {
        font-size: 52px;
        font-family: YanoneKaffeesatz-Bold, Yanone Kaffeesatz;
        font-weight: 700;
      }
    </style>
  </defs>
  <g id="ProzessIcon2" transform="translate(-393.5 -255.5)">
    <g id="Gruppe_52" data-name="Gruppe 52" transform="translate(75 71)">
      <ellipse id="Ellipse_19" data-name="Ellipse 19" class="cls-1" cx="96.5" cy="96" rx="96.5" ry="96" transform="translate(326 192)"/>
      <g id="Gruppe_45" data-name="Gruppe 45" transform="translate(352.531 255.103)">
        <g id="Gruppe_44" data-name="Gruppe 44" transform="translate(0 0)">
          <path id="Pfad_57" data-name="Pfad 57" class="cls-2" d="M602.935,374.151l-.345,10.309a2.4,2.4,0,0,1-2.228,2.467H530.723a2.415,2.415,0,0,1-2.229-2.566v-3.078a2.415,2.415,0,0,0-2.229-2.566H465.626a2.415,2.415,0,0,1-2.229-2.566V329.976a2.415,2.415,0,0,1,2.229-2.566h61.084a2.415,2.415,0,0,1,2.229,2.566,2.415,2.415,0,0,0,2.229,2.565c5.944,0,12.362-.932,18.025,1.354,5.86,2.365,11.014,6.452,15.818,10.9,4.46,4.131,8.661,10.264,14.413,11.692q5.747,1.427,11.491,2.873c3.133.788,7.147.589,8.519,4.433C600.445,366.621,603.039,371.046,602.935,374.151Z" transform="translate(-463.397 -325.358)"/>
          <circle id="Ellipse_14" data-name="Ellipse 14" class="cls-3" cx="13.062" cy="13.062" r="13.062" transform="translate(20.802 47.482)"/>
          <circle id="Ellipse_15" data-name="Ellipse 15" class="cls-2" cx="9.961" cy="9.961" r="9.961" transform="translate(23.903 50.583)"/>
          <circle id="Ellipse_16" data-name="Ellipse 16" class="cls-3" cx="13.062" cy="13.062" r="13.062" transform="translate(101.441 47.482)"/>
          <circle id="Ellipse_17" data-name="Ellipse 17" class="cls-2" cx="9.961" cy="9.961" r="9.961" transform="translate(104.543 50.583)"/>
          <rect id="Rechteck_179" data-name="Rechteck 179" class="cls-3" width="2.565" height="35.916" rx="1.283" transform="translate(68.24 35.916) rotate(180)"/>
          <g id="Gruppe_3" data-name="Gruppe 3" transform="translate(24.453 7.609)">
            <g id="Gruppe_2" data-name="Gruppe 2">
              <path id="Pfad_1" data-name="Pfad 1" class="cls-3" d="M508.421,343.5c-.026-.006.808-1.285.873-1.383a4.674,4.674,0,0,1,2.95-2.343,3.9,3.9,0,0,1,3.76,1.32,2.284,2.284,0,0,1,.352,2.014c-.076.279-.623,1.8-1.093,1.3a11.952,11.952,0,0,0-1.476-1.45,2.89,2.89,0,0,0-4.237.792Z" transform="translate(-497.963 -335.727)"/>
              <path id="Pfad_2" data-name="Pfad 2" class="cls-3" d="M504.531,342.308c.256.032.763-1.555.814-1.776a3.75,3.75,0,0,0-.037-1.883c-.823-2.894-4.135-4.253-6.92-4.054-1.307.093-3.562.832-3.45,2.5a1.81,1.81,0,0,0,.666,1.213,3.981,3.981,0,0,0,1.245.668,1.871,1.871,0,0,0,1.141.14,2.727,2.727,0,0,0,1.451-1.583,6.391,6.391,0,0,0-.168,1.328,1.207,1.207,0,0,0,.09.515.892.892,0,0,0,.942.431c.7-.109,1.333-1.169,2.076-.932.906.29,1.191,2.522,1.279,3.319Z" transform="translate(-494.934 -334.576)"/>
              <g id="Gruppe_1" data-name="Gruppe 1" transform="translate(4.276 8.668)">
                <path id="Pfad_3" data-name="Pfad 3" class="cls-3" d="M507.133,361.366a1.623,1.623,0,0,1,.06-2.1,3.341,3.341,0,0,1-1.089-2.439,3.539,3.539,0,0,1,2.362-3.24,1.6,1.6,0,0,1-.028-.285,1.857,1.857,0,0,1,1.89-1.761,5.69,5.69,0,0,0-.1-2.431,4.967,4.967,0,0,0-4.992-3.353c-6.165.149-4.949,8.342-4.025,12.332a78.029,78.029,0,0,0,2.233,7.611c.7,2.038,1.792,6.56,2.659,6.358.507-.118.071-1.079,0-2.081A26.075,26.075,0,0,1,507.133,361.366Z" transform="translate(-500.449 -345.755)"/>
                <path id="Pfad_4" data-name="Pfad 4" class="cls-3" d="M507.133,361.366a1.623,1.623,0,0,1,.06-2.1,3.341,3.341,0,0,1-1.089-2.439,3.539,3.539,0,0,1,2.362-3.24,1.6,1.6,0,0,1-.028-.285,1.857,1.857,0,0,1,1.89-1.761,5.69,5.69,0,0,0-.1-2.431,4.967,4.967,0,0,0-4.992-3.353c-6.165.149-4.949,8.342-4.025,12.332a78.029,78.029,0,0,0,2.233,7.611c.7,2.038,1.792,6.56,2.659,6.358.507-.118.071-1.079,0-2.081A26.075,26.075,0,0,1,507.133,361.366Z" transform="translate(-500.449 -345.755)"/>
              </g>
            </g>
          </g>
        </g>
        <path id="Pfad_58" data-name="Pfad 58" class="cls-3" d="M588.329,356.866l-15.3-12.747a2.515,2.515,0,0,0-1.61-.583h-9.908A2.515,2.515,0,0,0,559,346.051v7.092a8.171,8.171,0,0,0,8.17,8.17h19.549A2.515,2.515,0,0,0,588.329,356.866Z" transform="translate(-484.871 -328.98)"/>
      </g>
    </g>
    <path id="Pfad_69" data-name="Pfad 69" class="cls-4" d="M29,0A29,29,0,1,1,0,29,29,29,0,0,1,29,0Z" transform="translate(469 429)"/>
    <text id="_2" data-name="2" class="cls-5" transform="translate(488 472)"><tspan x="0" y="0">2</tspan></text>
  </g>
</svg>
