<svg xmlns="http://www.w3.org/2000/svg" width="208" height="231.5" viewBox="0 0 208 231.5">
  <defs>
    <style>
      .cls-1 {
        fill: #fdcf5c;
        stroke: #f2f2f2;
        stroke-width: 15px;
      }

      .cls-2, .cls-4 {
        fill: #fff;
      }

      .cls-3 {
        fill: #a7a7a7;
      }

      .cls-4 {
        font-size: 52px;
        font-family: YanoneKaffeesatz-Bold, Yanone Kaffeesatz;
        font-weight: 700;
      }
    </style>
  </defs>
  <g id="Gruppe_95" data-name="Gruppe 95" transform="translate(-964.5 -255.5)">
    <g id="Gruppe_50" data-name="Gruppe 50" transform="translate(227 71)">
      <path id="Pfad_66" data-name="Pfad 66" class="cls-1" d="M96.5,0C149.8,0,193,42.981,193,96s-43.2,96-96.5,96S0,149.019,0,96,43.2,0,96.5,0Z" transform="translate(745 192)"/>
      <g id="Gruppe_48" data-name="Gruppe 48" transform="translate(806.959 221.931)">
        <path id="Pfad_63" data-name="Pfad 63" class="cls-2" d="M1064.3,413.03c-4.418-1.783-5.672-3.674-5.672-8.562q0-34.541,0-69.08v-1.749c-.693-.1-1.319-.155-1.929-.288a9.081,9.081,0,0,1-7.211-9.179c-.03-10.661-.01-21.321-.01-31.981,0-2.388-.007-4.776,0-7.164.008-1.972.879-3.007,2.5-3.007,1.6,0,2.506,1.044,2.509,3.022q.022,13.624.007,27.248v1.589h4.128v-1.471q0-13.5,0-26.992a10.716,10.716,0,0,1,.04-1.4,2.313,2.313,0,0,1,2.177-1.986,2.253,2.253,0,0,1,2.428,1.652,7.234,7.234,0,0,1,.175,1.772q.015,13.431.007,26.864v1.573h4.214v-1.536q0-13.432.009-26.865a6.975,6.975,0,0,1,.2-1.892,2.249,2.249,0,0,1,4.323.116,7.153,7.153,0,0,1,.151,1.775q.013,13.368.006,26.737v1.629h4.238v-1.517c0-9.083-.017-18.166.031-27.248a3.4,3.4,0,0,1,.744-2.306,2.86,2.86,0,0,1,2.4-.547c.685.229,1.2,1.165,1.625,1.885.209.351.065.917.065,1.386,0,12.835-.107,25.671.055,38.5.064,5.068-4.264,9.423-8.35,9.5a3.567,3.567,0,0,0-.635.16v1.615q0,34.859.01,69.72c0,2.96-.8,5.477-3.475,7.072a17.69,17.69,0,0,1-2.207.951Z" transform="translate(-1049.469 -281.989)"/>
        <path id="Pfad_64" data-name="Pfad 64" class="cls-2" d="M1118.418,361.077H1111v-1.493q0-32.685,0-65.368c0-3.425.694-6.629,3.251-9.129a10.135,10.135,0,0,1,10.854-2.493c4.033,1.307,6.186,4.351,6.981,8.4a18.01,18.01,0,0,1,.251,3.436q.019,55.134,0,110.268a13.631,13.631,0,0,1-.212,2.539,6.637,6.637,0,0,1-7.074,5.521,6.774,6.774,0,0,1-6.516-6.067,20.08,20.08,0,0,1-.113-2.3q-.009-20.786,0-41.574Z" transform="translate(-1063.29 -281.981)"/>
      </g>
    </g>
    <path id="Pfad_69" data-name="Pfad 69" class="cls-3" d="M29,0A29,29,0,1,1,0,29,29,29,0,0,1,29,0Z" transform="translate(1040 429)"/>
    <text id="_4" data-name="4" class="cls-4" transform="translate(1059 472)"><tspan x="0" y="0">4</tspan></text>
  </g>
</svg>
