<svg xmlns="http://www.w3.org/2000/svg" width="208" height="231.5" viewBox="0 0 208 231.5">
  <defs>
    <style>
      .cls-1, .cls-4 {
        fill: #fdcf5c;
      }

      .cls-1 {
        stroke: #f2f2f2;
        stroke-width: 15px;
      }

      .cls-2 {
        fill: none;
        stroke: #fff;
        stroke-miterlimit: 10;
        stroke-width: 3px;
      }

      .cls-3, .cls-6 {
        fill: #fff;
      }

      .cls-5 {
        fill: #a7a7a7;
      }

      .cls-6 {
        font-size: 52px;
        font-family: YanoneKaffeesatz-Bold, Yanone Kaffeesatz;
        font-weight: 700;
      }
    </style>
  </defs>
  <g id="ProzessIcon3" transform="translate(-678.5 -255.5)">
    <g id="Gruppe_51" data-name="Gruppe 51" transform="translate(151 71)">
      <path id="Pfad_67" data-name="Pfad 67" class="cls-1" d="M96.5,0C149.8,0,193,42.981,193,96s-43.2,96-96.5,96S0,149.019,0,96,43.2,0,96.5,0Z" transform="translate(535 192)"/>
      <rect id="Rechteck_181" data-name="Rechteck 181" class="cls-2" width="25" height="11" rx="3.053" transform="translate(613 303)"/>
      <rect id="Rechteck_182" data-name="Rechteck 182" class="cls-2" width="24.812" height="10.855" rx="3.053" transform="translate(613.138 317.705)"/>
      <g id="Gruppe_49" data-name="Gruppe 49" transform="translate(598.126 222.651)">
        <g id="Gruppe_47" data-name="Gruppe 47">
          <g id="Gruppe_46" data-name="Gruppe 46">
            <path id="Pfad_59" data-name="Pfad 59" class="cls-3" d="M833.73,308.508v3.342h3.714v-3.342Zm6.885-.008v3.412h3.629V308.5Zm6.467.023v3.365h3.357v-3.365Z" transform="translate(-792.177 -288.658)"/>
            <path id="Pfad_60" data-name="Pfad 60" class="cls-3" d="M833.73,310.834v1.016h1.024A1.016,1.016,0,0,1,833.73,310.834Zm0-2.326v1.016a1.021,1.021,0,0,1,1.024-1.016Zm2.7,0a1.014,1.014,0,0,1,1.016,1.016v-1.016Zm0,3.342h1.016v-1.016A1.009,1.009,0,0,1,836.428,311.85Zm4.187-.954v1.016h1.016A1.014,1.014,0,0,1,840.615,310.9Zm0-2.4v1.016a1.019,1.019,0,0,1,1.016-1.016Zm2.613,0a1.014,1.014,0,0,1,1.016,1.016V308.5Zm0,3.412h1.016V310.9A1.009,1.009,0,0,1,843.228,311.912Zm3.854-1.039v1.016H848.1A1.014,1.014,0,0,1,847.082,310.873Zm0-2.349v1.016a1.009,1.009,0,0,1,1.016-1.016Zm2.342,0a1.014,1.014,0,0,1,1.016,1.016v-1.016Zm0,3.365h1.016v-1.016A1.019,1.019,0,0,1,849.424,311.888Z" transform="translate(-792.177 -288.658)"/>
            <path id="Pfad_61" data-name="Pfad 61" class="cls-3" d="M844.714,313.243c.4-.047.76-.085,1.093-.116a1.023,1.023,0,0,0,.907-1.016V283.926a1.014,1.014,0,0,0-1.016-1.016H781.156a1.014,1.014,0,0,0-1.016,1.016v28.2a1.01,1.01,0,0,0,.907,1.008.859.859,0,0,0,.147.016,1.023,1.023,0,0,1,.9,1.016v86.92a1.018,1.018,0,0,1-.907,1.016h-.023a1.016,1.016,0,0,0-.907,1.008v6.343a1.014,1.014,0,0,0,1.016,1.016h64.333a1.009,1.009,0,0,0,1.016-1.016V403.1a1.015,1.015,0,0,0-.93-1.016c-.031,0-.07-.008-.1-.008a1.02,1.02,0,0,1-.93-1.016V313.243Zm-9.669-10.468H838.4v3.365h-3.357Zm-6.467-.023h3.629v3.412h-3.629Zm-6.885.008h3.714V306.1h-3.714Zm-31.837,14.662h47.1V397.79h-47.1Z" transform="translate(-780.14 -282.91)"/>
            <path id="Pfad_62" data-name="Pfad 62" class="cls-3" d="M810.454,349.787a24.573,24.573,0,0,0,2.055-1.683c.236-.239.231-.718.337-1.088-1.3-.334-.741-1.4-.79-2.166-.078-1.222-.02-2.452-.02-3.8h10.052c0,1.742,0,3.446,0,5.151,0,.1.013.25-.04.284-2.02,1.293-.116,1.695.55,2.313a6.392,6.392,0,0,1,2.076,4.872q.034,7.379,0,14.759c-.011,1.817-.8,2.626-2.632,2.618-3.782-.019-7.564-.174-11.346-.175-3.633,0-7.268.145-10.9.183-2.826.029-3.4-.561-3.4-3.323,0-4.575.022-9.15-.009-13.726a6.354,6.354,0,0,1,3-5.863c.657-.416.922-.851,0-1.329a1.052,1.052,0,0,1-.459-.774c-.042-1.616-.021-3.233-.021-4.979h10.13c0,1.716,0,3.333,0,4.951,0,.147.036.383-.036.428-2.2,1.344-.112,1.7.543,2.377C809.838,349.134,810.136,349.452,810.454,349.787Zm12.034,3.745a3.261,3.261,0,0,0-1.614-3.362c-1.466-.679-2.12-1.581-1.8-3.171h-4.054c.373,1.675-.3,2.48-1.722,3.152a3.132,3.132,0,0,0-1.531,3.542h7.3v2.022c-2.1,0-4.112.05-6.117-.02-1.064-.036-1.491.25-1.447,1.393.084,2.158.025,4.322.025,6.483v5.283h10.955V355.841l-1.64-.263v-1.84Zm-20.617-6.588c.7,1.882-.425,2.544-1.8,3.278-1.163.62-1.608,1.887-1.521,3.451h7.489v2.093h-7.5v13.128h10.84v-13.05l-1.641-.244v-1.841l1.627-.261a3.113,3.113,0,0,0-1.495-3.248c-1.421-.727-2.322-1.543-1.938-3.3Zm-.8-2.256h5.806v-1.562h-5.806Zm13.086-.016h5.777v-1.535h-5.777Z" transform="translate(-783.788 -295.971)"/>
            <rect id="Rechteck_180" data-name="Rechteck 180" class="cls-3" width="2.77" height="40.884" rx="1.385" transform="translate(49.847 59.21)"/>
          </g>
        </g>
        <g id="Gruppe_3" data-name="Gruppe 3" transform="translate(28.524 3.509)">
          <g id="Gruppe_2" data-name="Gruppe 2" transform="translate(0 0)">
            <path id="Pfad_1" data-name="Pfad 1" class="cls-4" d="M825.467,293.087c-.016,0,.513-.814.553-.875a2.963,2.963,0,0,1,1.869-1.484,2.469,2.469,0,0,1,2.38.836,1.444,1.444,0,0,1,.223,1.275c-.048.176-.395,1.141-.692.823a7.516,7.516,0,0,0-.934-.919,1.829,1.829,0,0,0-2.683.5Z" transform="translate(-818.845 -288.164)"/>
            <path id="Pfad_2" data-name="Pfad 2" class="cls-4" d="M823,292.332c.162.02.483-.985.516-1.125a2.381,2.381,0,0,0-.024-1.193c-.521-1.832-2.618-2.693-4.382-2.566-.827.059-2.256.526-2.185,1.584a1.147,1.147,0,0,0,.422.768,2.535,2.535,0,0,0,.789.423,1.183,1.183,0,0,0,.723.088,1.725,1.725,0,0,0,.92-1,4.04,4.04,0,0,0-.107.841.774.774,0,0,0,.057.326.565.565,0,0,0,.6.273c.443-.07.844-.741,1.314-.59.575.184.754,1.6.81,2.1Z" transform="translate(-816.927 -287.435)"/>
            <g id="Gruppe_1" data-name="Gruppe 1" transform="translate(2.708 5.488)">
              <path id="Pfad_3" data-name="Pfad 3" class="cls-4" d="M824.652,304.4a1.028,1.028,0,0,1,.037-1.33,2.119,2.119,0,0,1-.689-1.545,2.241,2.241,0,0,1,1.5-2.052,1.019,1.019,0,0,1-.017-.181,1.175,1.175,0,0,1,1.2-1.114,3.6,3.6,0,0,0-.065-1.54,3.144,3.144,0,0,0-3.16-2.123c-3.9.095-3.134,5.282-2.549,7.809a49.2,49.2,0,0,0,1.414,4.82c.441,1.29,1.134,4.154,1.683,4.027.322-.075.046-.684,0-1.318A16.539,16.539,0,0,1,824.652,304.4Z" transform="translate(-820.42 -294.514)"/>
              <path id="Pfad_4" data-name="Pfad 4" class="cls-4" d="M824.652,304.4a1.028,1.028,0,0,1,.037-1.33,2.119,2.119,0,0,1-.689-1.545,2.241,2.241,0,0,1,1.5-2.052,1.019,1.019,0,0,1-.017-.181,1.175,1.175,0,0,1,1.2-1.114,3.6,3.6,0,0,0-.065-1.54,3.144,3.144,0,0,0-3.16-2.123c-3.9.095-3.134,5.282-2.549,7.809a49.2,49.2,0,0,0,1.414,4.82c.441,1.29,1.134,4.154,1.683,4.027.322-.075.046-.684,0-1.318A16.539,16.539,0,0,1,824.652,304.4Z" transform="translate(-820.42 -294.514)"/>
            </g>
          </g>
        </g>
      </g>
      <path id="Pfad_68" data-name="Pfad 68" class="cls-4" d="M0,0H102V3H0Z" transform="translate(581 251)"/>
    </g>
    <path id="Pfad_69" data-name="Pfad 69" class="cls-5" d="M29,0A29,29,0,1,1,0,29,29,29,0,0,1,29,0Z" transform="translate(754 429)"/>
    <text id="_3" data-name="3" class="cls-6" transform="translate(773 472)"><tspan x="0" y="0">3</tspan></text>
  </g>
</svg>
