<svg xmlns="http://www.w3.org/2000/svg" width="205.005" height="205.005" viewBox="0 0 205.005 205.005">
  <defs>
    <style>
      .cls-1 {
        fill: #fdcf5c;
        stroke: #f2f2f2;
        stroke-width: 15px;
      }

      .cls-2 {
        fill: #fff;
      }
    </style>
  </defs>
  <g id="VorteilUnternehmen4" transform="translate(-873.735 -199.914)">
    <circle id="Ellipse_23" data-name="Ellipse 23" class="cls-1" cx="95.002" cy="95.002" r="95.002" transform="translate(881.235 207.414)"/>
    <g id="Gruppe_66" data-name="Gruppe 66" transform="translate(912.074 249.342)">
      <path id="Pfad_129" data-name="Pfad 129" class="cls-2" d="M2502,229.508h-8.3c-.14-1.347-.219-2.656-.421-3.947-2.322-14.828-16.742-24.419-30.909-20.114a25.043,25.043,0,0,0-17.356,21.271,30.926,30.926,0,0,0,1.429,12.023,4.174,4.174,0,1,1-8.033,2.268c-3.791-11.481-2.317-22.239,4.932-31.931,6.449-8.621,15.288-13.146,26.093-13.026,11.943.132,21.065,5.663,27.529,15.632.258.4.5.805.768,1.234,1.43-1.931,2.648-3.885,4.166-5.571,8.226-9.139,18.5-13.047,30.608-10.685,12.356,2.41,20.788,10,24.772,21.828,4.49,13.333,1.663,25.464-8.343,35.417-15.8,15.714-31.883,31.142-47.854,46.684-2.086,2.03-4.376,2.075-6.457.055Q2478.5,285,2462.436,269.3a4.2,4.2,0,1,1,5.9-5.948q13.968,13.565,27.9,27.171a10.423,10.423,0,0,1,1.214,1.843c.818-.775,1.171-1.1,1.515-1.434q21.854-21.28,43.7-42.567c9.6-9.38,10.844-23.427,3.089-34.069a24.028,24.028,0,0,0-41.037,3.8A27.7,27.7,0,0,0,2502,229.508Z" transform="translate(-2431.016 -195.987)"/>
      <path id="Pfad_130" data-name="Pfad 130" class="cls-2" d="M2473.8,256.622c-.577.75-1.06,1.366-1.53,1.99-2.159,2.863-4.329,5.719-6.465,8.6a4.592,4.592,0,0,1-3.979,1.967c-9.224-.028-18.448-.011-27.671-.012-2.868,0-4.785-1.684-4.782-4.189s1.888-4.2,4.791-4.213c6.43-.024,12.86-.01,19.29-.011,1.73,0,3.463-.07,5.188.024a2.516,2.516,0,0,0,2.426-1.179c3.145-4.282,6.361-8.512,9.556-12.757,2.545-3.38,6-3.1,7.968.655q5.716,10.933,11.4,21.882c.219.42.462.827.789,1.409.272-.477.478-.792.64-1.127q3.813-7.88,7.618-15.764c1.821-3.763,5.157-4.175,7.874-.96,1.943,2.3,3.883,4.6,5.765,6.955a2.172,2.172,0,0,0,1.92.876c2.348-.011,4.707-.064,7.04.138a3.891,3.891,0,0,1,3.49,3.89,4.1,4.1,0,0,1-3.142,4.212,6.048,6.048,0,0,1-1.448.133c-2.927.01-5.854-.02-8.78.008a4.522,4.522,0,0,1-3.718-1.705c-1.245-1.494-2.5-2.982-3.891-4.646-.312.57-.574,1-.791,1.448-2.763,5.735-5.547,11.462-8.262,17.219-.845,1.79-2.018,3.029-4.092,3.056s-3.276-1.215-4.176-2.958q-6.086-11.788-12.245-23.539C2474.375,257.605,2474.133,257.2,2473.8,256.622Z" transform="translate(-2429.378 -207.327)"/>
    </g>
  </g>
</svg>
