<svg xmlns="http://www.w3.org/2000/svg" width="205.005" height="205.005" viewBox="0 0 205.005 205.005">
  <defs>
    <style>
      .cls-1 {
        fill: #fdcf5c;
        stroke: #f2f2f2;
        stroke-width: 15px;
      }

      .cls-2 {
        fill: #fff;
      }
    </style>
  </defs>
  <g id="VorteilUnternehmen3" transform="translate(-647.625 -194.351)">
    <circle id="Ellipse_22" data-name="Ellipse 22" class="cls-1" cx="95.002" cy="95.002" r="95.002" transform="translate(655.125 201.851)"/>
    <g id="Gruppe_65" data-name="Gruppe 65" transform="translate(700.787 242.145)">
      <path id="Pfad_127" data-name="Pfad 127" class="cls-2" d="M2247.9,226.319c-3.075-.788-6.406-.677-9.625-.8-5.072-.191-10.144-.237-15.215-.381-.138,0-.441-.532-.375-.683,1.761-3.942,3.8-7.772,5.3-11.806,2.844-7.647,3.264-15.248-2.142-22.106-2.207-2.8-5.137-4.592-8.888-3.731-3.666.84-4.875,3.8-5.466,7.121a70.021,70.021,0,0,1-1.663,8.882,31.557,31.557,0,0,1-4.007,8.994c-2.161,3.009-5.571,5.1-7.779,8.08-3.882,5.236-7.259,10.853-10.853,16.306a3.466,3.466,0,0,1-.479.5c-.059-.2-.118-.408-.171-.618-.8-3.075-3.383-5.7-6.53-5.808-6.392-.23-12.8-.3-19.2-.072a7.269,7.269,0,0,0-7.088,7.1c-.23,7.049-.066,14.1-.066,21.16h-.059q0,10.169,0,20.333c.007,3.935,2.766,7.614,6.668,7.831,6.3.355,12.639.249,18.959.144a7.193,7.193,0,0,0,6.945-5.012c.479-1.294,1.077-1.485,2.174-1.183,6.267,1.761,12.534,3.535,18.808,5.269,8.573,2.378,17.317,2.122,26.054,1.446,5.939-.46,10.1-4.139,11-9.683.322-2.03.519-3.784,2.108-5.46a12.593,12.593,0,0,0,3.187-10.525,6.737,6.737,0,0,1,1.024-3.922c1.964-3.2,3.633-6.55,2.694-10.307a10.2,10.2,0,0,1,.808-6.937C2256.658,234.11,2253.985,227.869,2247.9,226.319Zm-67.764,51.991a2.691,2.691,0,0,1-1.873,1.846c-5.492.151-10.984.131-16.47.013a2.221,2.221,0,0,1-1.511-1.571c-.1-6.734-.073-13.473-.073-20.214,0-6.675-.039-13.356.073-20.03a2.324,2.324,0,0,1,1.6-1.6q8.327-.177,16.661,0a2.329,2.329,0,0,1,1.61,1.6Q2180.288,258.329,2180.137,278.309Zm66.1-31.934a6.257,6.257,0,0,1-1.078,7.239c-2.654,2.713-2.516,5.7-2.378,9.073a8.671,8.671,0,0,1-1.978,5.656c-1.9,2.122-3.2,4.047-3.016,7.056.185,3.1-1.793,5.13-4.933,5.315-8.271.5-16.529.952-24.675-1.472-6.648-1.977-13.415-3.534-20.109-5.361a2.023,2.023,0,0,1-1.215-1.413c-.092-4.389-.053-8.776-.053-13.165,0-4.6-.006-9.2.02-13.809a1.064,1.064,0,0,1,.479-.769c4.435-2.457,6.675-6.806,9.427-10.741,3.613-5.177,6.582-11.208,11.292-15.11,6.656-5.506,7.891-12.653,9.355-20.1.289-1.452.526-2.911.729-4.375.19-1.347.788-1.406,1.688-.6a10.684,10.684,0,0,1,3.331,10.971,94.526,94.526,0,0,1-5.624,14.9c-3.58,7.877-1.216,12.061,7.456,12.3,6.024.164,12.055-.026,18.073.25,1.708.072,4.368.86,4.8,2a7.234,7.234,0,0,1-.972,5.683A6.1,6.1,0,0,0,2246.233,246.376Z" transform="translate(-2153.599 -186.593)"/>
      <path id="Pfad_128" data-name="Pfad 128" class="cls-2" d="M2256.363,248.416a6.257,6.257,0,0,1-1.078,7.239c-2.654,2.713-2.516,5.7-2.378,9.073a8.671,8.671,0,0,1-1.978,5.656c-1.9,2.122-3.2,4.047-3.016,7.056.185,3.1-1.793,5.13-4.933,5.315-8.271.5-16.529.952-24.675-1.472-6.648-1.977-13.415-3.534-20.109-5.361a2.023,2.023,0,0,1-1.215-1.413c-.092-4.388-.053-8.776-.053-13.165,0-4.6-.006-9.2.02-13.809a1.064,1.064,0,0,1,.479-.769c4.435-2.457,6.675-6.806,9.427-10.741,3.613-5.177,6.582-11.208,11.292-15.11,6.656-5.506,7.891-12.653,9.355-20.1.289-1.452.526-2.911.729-4.375.19-1.347.788-1.406,1.688-.6a10.684,10.684,0,0,1,3.331,10.971,94.526,94.526,0,0,1-5.624,14.9c-3.58,7.877-1.216,12.061,7.456,12.3,6.024.164,12.055-.026,18.073.25,1.708.072,4.368.86,4.8,2a7.234,7.234,0,0,1-.972,5.683A6.1,6.1,0,0,0,2256.363,248.416Z" transform="translate(-2163.73 -188.633)"/>
    </g>
  </g>
</svg>
