<svg xmlns="http://www.w3.org/2000/svg" width="205" height="205" viewBox="0 0 205 205">
  <defs>
    <style>
      .cls-1 {
        fill: #fdcf5c;
        stroke: #f2f2f2;
        stroke-width: 15px;
      }

      .cls-2, .cls-3 {
        fill: #fff;
      }

      .cls-2 {
        stroke: #fff;
        stroke-miterlimit: 10;
        stroke-width: 8px;
      }
    </style>
  </defs>
  <g id="VorteileMitarbeiter2" transform="translate(-2086.5 -419.5)">
    <circle id="Ellipse_28" data-name="Ellipse 28" class="cls-1" cx="95" cy="95" r="95" transform="translate(2094 427)"/>
    <g id="Gruppe_83" data-name="Gruppe 83" transform="translate(2144.551 449.218)">
      <path id="Pfad_140" data-name="Pfad 140" class="cls-2" d="M2230.97,473.029h-4.389V461.123L2177.667,476.8a15.247,15.247,0,0,0,2.4.538q30.879,0,61.759-.025c3.89,0,4.1.231,4.1,4.175q0,54.442,0,108.885c0,4.063-.293,4.363-4.32,4.364q-38.365,0-76.729-.005c-4.679,0-4.836-.161-4.837-4.827q-.01-54.283-.053-108.567c0-2.483.683-3.791,3.192-4.585,21.194-6.7,42.345-13.538,63.513-20.32,3.137-1.005,4.2-.33,4.262,2.845C2231.032,463.812,2230.97,468.349,2230.97,473.029Zm-11.856,103.7h22.32V481.77h-76.91V589.977h76.937v-8.791" transform="translate(-2159.982 -456)"/>
      <path id="Pfad_141" data-name="Pfad 141" class="cls-3" d="M2248.087,667.363l.792.054a1.834,1.834,0,0,1-.024.185c-.261-.008-.521-.027-.781-.044Z" transform="translate(-2180.584 -505.432)"/>
      <path id="Pfad_142" data-name="Pfad 142" class="cls-3" d="M2261.184,667.566l-.649.089-.049-.39c.106-.008.232-.057.313-.017A2.206,2.206,0,0,1,2261.184,667.566Z" transform="translate(-2183.487 -505.401)"/>
      <path id="Pfad_143" data-name="Pfad 143" class="cls-3" d="M2267.149,667.579h-.742l0-.136h.741Z" transform="translate(-2184.872 -505.451)"/>
      <path id="Pfad_144" data-name="Pfad 144" class="cls-3" d="M2190.682,536.285h28.241v4.668h-22.7c-2.1,0-4.208,0-6.312,0-3.8-.014-4.607-.978-4.063-4.842,1.523-10.828,8.322-18.212,19.086-20.74.635-.149,1.255-.364,2.013-.587.1-1.1.206-2.161.32-3.367h4.3c-.231,2.99,1.573,3.718,4.229,4.358a23.317,23.317,0,0,1,17.312,20.063c.425,4.672,0,5.137-4.717,5.123-.869,0-1.739,0-2.884,0-.071-1.507-.132-2.783-.2-4.262l2.958-.72c-.016-3.728-1.715-6.781-4.023-9.491-5.229-6.139-11.91-8.221-19.673-6.3C2197.037,522.056,2191.8,528.162,2190.682,536.285Z" transform="translate(-2165.995 -468.96)"/>
      <path id="Pfad_145" data-name="Pfad 145" class="cls-3" d="M2234.854,559.979h-51.887v-4.185h51.887Z" transform="translate(-2165.357 -479.339)"/>
    </g>
  </g>
</svg>
