<svg xmlns="http://www.w3.org/2000/svg" width="205" height="205" viewBox="0 0 205 205">
  <defs>
    <style>
      .cls-1 {
        fill: #fdcf5c;
        stroke: #f2f2f2;
        stroke-width: 15px;
      }

      .cls-2 {
        fill: #fff;
      }
    </style>
  </defs>
  <g id="VorteilUnternehmen2" transform="translate(-423.5 -194.5)">
    <circle id="Ellipse_21" data-name="Ellipse 21" class="cls-1" cx="95" cy="95" r="95" transform="translate(431 202)"/>
    <g id="Gruppe_64" data-name="Gruppe 64" transform="translate(464.274 239.63)">
      <path id="Pfad_125" data-name="Pfad 125" class="cls-2" d="M1923.1,299.3c-4.982-.586-9.96-1.218-14.948-1.744-3.789-.4-7.588-.55-11.284.7a6.964,6.964,0,0,0-1.446.647,1.592,1.592,0,0,0-.608,2.089,1.7,1.7,0,0,0,2.146.894c3.224-1.365,6.59-1.3,9.961-.963,4.914.485,9.814,1.133,14.732,1.576a22.643,22.643,0,0,0,9.53-.876,8.4,8.4,0,0,0,5.183-4.072,7.482,7.482,0,0,0,.417-5.273,1.8,1.8,0,0,1,1.406-2.484c1.951-.587,3.9-1.191,5.882-1.659a21.769,21.769,0,0,0,5.909-2.282c3.593-2.059,7.242-4.022,10.873-6.012a7.719,7.719,0,0,1,4.271-1.04,3.571,3.571,0,0,1,3.32,4.99,8.412,8.412,0,0,1-2.82,3.881c-6.331,4.837-12.66,9.68-19.034,14.46a57.986,57.986,0,0,1-6.846,4.629,56.16,56.16,0,0,1-7.12,2.954c-6.852,2.59-13.742,5.083-20.578,7.717a21.439,21.439,0,0,1-13.241.86c-6.153-1.509-12.38-2.726-18.6-3.958-6.246-1.237-12.506-2.414-18.787-3.442a18.538,18.538,0,0,0-4.641.357c-1.586.157-3.167.357-4.752.513a1.84,1.84,0,0,1-2.036-1.605c-.568-3-1.106-6-1.668-9q-1.679-8.958-3.37-17.915a1.936,1.936,0,0,1,1.714-2.537c1.846-.375,3.686-.814,5.551-1.053a8.575,8.575,0,0,0,3.347-1.545,22.165,22.165,0,0,1,9.238-2.936c7.6-.816,14.617,1.191,21.416,4.354,4.427,2.059,8.878,4.07,13.374,5.971a8.442,8.442,0,0,0,3.715.609,78.3,78.3,0,0,1,17.011.688c2.9.441,5.758,1.187,8.6,1.915a6.052,6.052,0,0,1,4.4,4.122c.809,2.4-.008,4.433-2.909,5.42A22.889,22.889,0,0,1,1923.1,299.3Z" transform="translate(-1844.896 -204.748)"/>
      <path id="Pfad_126" data-name="Pfad 126" class="cls-2" d="M1969,217.189a33.822,33.822,0,1,1-33.691-33.878A33.795,33.795,0,0,1,1969,217.189Zm-39.557,2.4c-1.837-1.867-3.509-3.609-5.228-5.3a5.609,5.609,0,0,0-8.089,7.764q4.677,4.844,9.53,9.518a5.466,5.466,0,0,0,7.806-.168q10.207-10.174,20.395-20.37A5.644,5.644,0,1,0,1945.94,203q-5.941,5.893-11.834,11.835C1932.573,216.371,1931.062,217.932,1929.44,219.587Z" transform="translate(-1858.098 -183.311)"/>
    </g>
  </g>
</svg>
