<svg xmlns="http://www.w3.org/2000/svg" width="205" height="205" viewBox="0 0 205 205">
  <defs>
    <style>
      .cls-1 {
        fill: #fdcf5c;
        stroke: #f2f2f2;
        stroke-width: 15px;
      }

      .cls-2 {
        fill: #fff;
      }
    </style>
  </defs>
  <g id="VorteilUnternehmen1" transform="translate(-201.5 -194.5)">
    <circle id="Ellipse_20" data-name="Ellipse 20" class="cls-1" cx="95" cy="95" r="95" transform="translate(209 202)"/>
    <g id="Gruppe_63" data-name="Gruppe 63" transform="translate(250.216 242.977)">
      <path id="Pfad_119" data-name="Pfad 119" class="cls-2" d="M1657.784,203.8l9.018-9.382c2.105,10.748,4.163,21.252,6.269,32.008l-31.727-5.423,8.032-8.445c-12.091-13.341-34.783-18.047-52.909-6.214-18.42,12.025-24.077,34.865-14.432,54.008,9.855,19.559,33.923,28.936,55.75,18.634l6.491,9.919c-19.777,10.98-48.807,8.223-66.583-13.51a53.764,53.764,0,0,1,80.092-71.6Z" transform="translate(-1565.501 -187.679)"/>
      <path id="Pfad_120" data-name="Pfad 120" class="cls-2" d="M1648.929,269.157V263.57H1635.8c-.307-1.873-.627-3.654-.864-5.444a1.707,1.707,0,0,1,.42-1q6.34-9.072,12.718-18.116a1.675,1.675,0,0,1,1.061-.728c2.387-.065,4.777-.034,7.358-.034v19.017h3.441v6.21h-3.347v5.677Zm-.049-11.794V248.35l-6.2,9.013Z" transform="translate(-1581.738 -199.504)"/>
      <path id="Pfad_121" data-name="Pfad 121" class="cls-2" d="M1615.025,262.386h11.242v6.643h-21.305c0-1.918-.053-3.871.042-5.816.02-.413.538-.843.9-1.19,2.879-2.775,5.8-5.506,8.654-8.308a25.332,25.332,0,0,0,2.948-3.4,3.617,3.617,0,0,0,.034-4.333,3.717,3.717,0,0,0-4.443-.509,42.781,42.781,0,0,0-3.848,2.859l-4.45-4.788a13.47,13.47,0,0,1,14.977-5.132,9.238,9.238,0,0,1,5.2,13.519,26.655,26.655,0,0,1-3.936,4.755C1619.21,258.577,1617.224,260.317,1615.025,262.386Z" transform="translate(-1574.691 -199.4)"/>
      <path id="Pfad_122" data-name="Pfad 122" class="cls-2" d="M1700.878,267.6l-11.079-2.674c.176-3.209.348-6.328.531-9.667h4.388c2.114,0,4.228-.042,6.339.04.388.015,1.1.559,1.083.814-.279,3.733-.656,7.458-1.018,11.183C1701.115,267.375,1701.012,267.44,1700.878,267.6Z" transform="translate(-1594.568 -203.481)"/>
      <path id="Pfad_123" data-name="Pfad 123" class="cls-2" d="M1686.336,276.637l11.066,4.332c-1.692,3.4-3.325,6.691-5.033,10.126l-9.311-7.24Z" transform="translate(-1592.992 -208.482)"/>
      <path id="Pfad_124" data-name="Pfad 124" class="cls-2" d="M1668.794,299.892l5.576-5.07,9.2,7.7-8.163,7.446Z" transform="translate(-1589.656 -212.735)"/>
    </g>
  </g>
</svg>
