<svg xmlns="http://www.w3.org/2000/svg" width="205" height="205" viewBox="0 0 205 205">
  <defs>
    <style>
      .cls-1 {
        fill: #fdcf5c;
        stroke: #f2f2f2;
        stroke-width: 15px;
      }

      .cls-2, .cls-3 {
        fill: #fff;
      }

      .cls-2 {
        stroke: #fff;
        stroke-miterlimit: 10;
        stroke-width: 4px;
      }
    </style>
  </defs>
  <g id="VorteileMitarbeiter3" transform="translate(-1504.205 -418.943)">
    <circle id="Ellipse_25" data-name="Ellipse 25" class="cls-1" cx="95" cy="95" r="95" transform="translate(1511.705 426.443)"/>
    <g id="Gruppe_77" data-name="Gruppe 77" transform="translate(1546.574 446.282)">
      <path id="Pfad_134" data-name="Pfad 134" class="cls-2" d="M1668.215,559.1c4.415-.344,8.958-4.269,9.534-8.328a10.284,10.284,0,0,0-1.312-6.783c-1-1.7-2.527-1.952-4.458-1.243a1.981,1.981,0,0,0-1.222,1.775,10.809,10.809,0,0,0-.018,1.589,1.273,1.273,0,0,0,1.147,1.315,2.512,2.512,0,0,1,2.089,3.084,2.557,2.557,0,0,1-3.286,1.894,6.109,6.109,0,0,1-5.051-5.7,12.667,12.667,0,0,1,.117-3.25,7.231,7.231,0,0,1,6.889-6.117,8.208,8.208,0,0,1,8.808,5.165,15.669,15.669,0,0,1,1.08,10.548c-1.1,4.348-4.017,7.208-7.886,9.159a48.4,48.4,0,0,1-4.906,1.91c-.355.133-.649.2-.613.71a36.544,36.544,0,0,1-3.92,18.386,56.7,56.7,0,0,1-8.9,13.337,5.177,5.177,0,0,0-.682.944c-3.063,5.613-6.139,11.219-9.155,16.857a3.591,3.591,0,0,1-3.539,2.14c-4.359-.06-8.719-.018-13.078-.021-2.276,0-3.435-1.175-3.442-3.474q-.009-2.933-.023-5.867a1.15,1.15,0,0,0-.1-.257c-6.134,1.333-12.217.727-18.337-.832-.092.226-.2.442-.267.668q-1.085,3.565-2.159,7.133c-.594,1.969-1.482,2.631-3.527,2.63q-5.994,0-11.988,0a3.038,3.038,0,0,1-3.371-3.367c-.005-3.549-.015-7.1.01-10.647a.878.878,0,0,0-.782-1.028c-4.108-1.111-7.882-2.859-10.785-6.088a2.287,2.287,0,0,0-1.984-.859c-6.289.148-10.392-3.1-12.978-8.569a31.214,31.214,0,0,1-2.651-10.929c-.1-1.2-.15-2.4-.152-3.6a2.958,2.958,0,0,1,3.288-3.176,11,11,0,0,0,6.5-1.815,1.241,1.241,0,0,0,.572-.729,30.024,30.024,0,0,1,4.014-10.674c.8-1.435,1.679-2.826,2.555-4.293a3.8,3.8,0,0,0-.407-.246c-4.38-1.968-7.213-5.447-9.3-9.619a2.955,2.955,0,0,1,1.534-4.073,32.081,32.081,0,0,1,13.143-2.939,17.579,17.579,0,0,1,6.532,1.3,1.492,1.492,0,0,0,1.135-.057,60.567,60.567,0,0,1,33.571-7.739c11.117.687,21.477,3.745,30.718,10.113,5.624,3.875,10.561,8.47,13.949,14.485a65.933,65.933,0,0,1,2.816,6.427C1668.051,558.6,1668.129,558.859,1668.215,559.1ZM1562.5,573.349a27.548,27.548,0,0,0,2.482,10.791c2.054,4.177,5.179,5.785,9.784,5.082a2.9,2.9,0,0,1,3.112,1.34,11.458,11.458,0,0,0,4.065,3.786,22.833,22.833,0,0,0,7.05,2.556,3.082,3.082,0,0,1,2.777,3.4c0,3.409.018,6.818-.013,10.227-.006.662.195.866.852.858q3.77-.048,7.543,0a.861.861,0,0,0,.983-.755c.744-2.572,1.532-5.134,2.3-7.7.645-2.148,2.144-2.909,4.329-2.32,1.883.508,3.783.988,5.7,1.32,4.735.819,9.432.871,14.04-.843a2.961,2.961,0,0,1,4.018,2.917c.019,2.151.039,4.3-.013,6.454-.018.768.255.939.962.931,2.933-.033,5.867-.04,8.8,0a1.391,1.391,0,0,0,1.417-.868q4.372-8.013,8.814-15.989a9.166,9.166,0,0,1,1.159-1.625,46.981,46.981,0,0,0,9.809-16.235c2.4-7.1,2.336-14.1-1.086-20.9a35.65,35.65,0,0,0-10.431-12.08c-11.887-9.183-25.537-12.248-40.226-10.986a51.21,51.21,0,0,0-22.642,7.679,3.2,3.2,0,0,1-3.408.038,13,13,0,0,0-2.858-1.133,15.512,15.512,0,0,0-7.06.1c-1.458.31-2.893.736-4.58,1.173.849,1.03,1.485,1.906,2.228,2.679a9.064,9.064,0,0,0,5.465,3.006c2.764.342,3.841,2.818,2.226,5.109a59.141,59.141,0,0,0-5.672,9.568,13.53,13.53,0,0,0-1.621,5.925,3.287,3.287,0,0,1-1.479,2.919A18.343,18.343,0,0,1,1562.5,573.349Z" transform="translate(-1557.317 -469.909)"/>
      <path id="Pfad_135" data-name="Pfad 135" class="cls-3" d="M1652.375,477.135a24.843,24.843,0,1,1-24.882-24.876A24.841,24.841,0,0,1,1652.375,477.135ZM1627.561,496.8a19.708,19.708,0,1,0-19.737-19.3A19.79,19.79,0,0,0,1627.561,496.8Z" transform="translate(-1568.003 -452.259)"/>
      <path id="Pfad_136" data-name="Pfad 136" class="cls-3" d="M1647.5,545.415a2.576,2.576,0,0,1-3.8,2.234,35.476,35.476,0,0,0-8.041-2.53,33.125,33.125,0,0,0-20.117,2.393,2.6,2.6,0,0,1-3.518-1.085,2.553,2.553,0,0,1,1.249-3.524,35.381,35.381,0,0,1,12.2-3.336,39.355,39.355,0,0,1,20.167,3.325A2.623,2.623,0,0,1,1647.5,545.415Z" transform="translate(-1570.134 -472.775)"/>
      <path id="Pfad_137" data-name="Pfad 137" class="cls-3" d="M1590.858,577.325a4.137,4.137,0,1,1-4.14-4.155A4.119,4.119,0,0,1,1590.858,577.325Z" transform="translate(-1563.268 -480.736)"/>
      <path id="Pfad_138" data-name="Pfad 138" class="cls-3" d="M1638.105,474.111c-.741-.377-1.374-.723-2.027-1.027a5.223,5.223,0,0,0-3.325-.555,1.865,1.865,0,0,0-1.562,1.449,1.656,1.656,0,0,0,.729,1.9c.823.519,1.7.959,2.536,1.453a24.3,24.3,0,0,1,3.2,1.956,7.074,7.074,0,0,1-1.732,11.993,1.027,1.027,0,0,0-.761,1.165c.053.969.014,1.942.014,3.02-1.44,0-2.8.018-4.16-.024-.149,0-.4-.343-.411-.542a11,11,0,0,1-.005-2.008c.08-.755-.213-.992-.924-1.235a29.233,29.233,0,0,1-3.763-1.729.869.869,0,0,1-.28-.793c.466-1.311,1-2.6,1.555-3.983.521.358.984.688,1.458,1a6.451,6.451,0,0,0,3.937,1.19,2.374,2.374,0,0,0,1.488-4.289,20.242,20.242,0,0,0-2.137-1.3,28.341,28.341,0,0,1-3.442-2.046,6.5,6.5,0,0,1,1.459-11.135,1.2,1.2,0,0,0,.872-1.365,13.6,13.6,0,0,1,.015-2.176c.014-.194.277-.524.435-.528,1.33-.043,2.662-.024,4.091-.024,0,.995.025,1.881-.009,2.767-.02.51.173.68.66.855a31.2,31.2,0,0,1,3.344,1.479.85.85,0,0,1,.252.78C1639.165,471.595,1638.644,472.8,1638.105,474.111Z" transform="translate(-1573.403 -455.138)"/>
    </g>
  </g>
</svg>
