<svg xmlns="http://www.w3.org/2000/svg" width="205" height="205" viewBox="0 0 205 205">
  <defs>
    <style>
      .cls-1 {
        fill: #fdcf5c;
        stroke-width: 15px;
      }

      .cls-1, .cls-2 {
        stroke: #f2f2f2;
      }

      .cls-2 {
        fill: #fff;
      }
    </style>
  </defs>
  <g id="VorteileMitarbeiter1" transform="translate(-1794.205 -419.343)">
    <circle id="Ellipse_24" data-name="Ellipse 24" class="cls-1" cx="95" cy="95" r="95" transform="translate(1801.705 426.843)"/>
    <g id="Gruppe_75" data-name="Gruppe 75" transform="translate(1835.838 457.884)">
      <path id="Pfad_131" data-name="Pfad 131" class="cls-2" d="M1947.619,508.682l8.983-8.974c15.983,20.5,17.668,55.328-5.673,79.058a61.129,61.129,0,0,1-88.545-84.274c22.806-24.764,58.738-25,81.139-7.9l-9.011,8.991c-11.861-7.726-24.9-10.16-38.849-6.766a47.006,47.006,0,0,0-27.978,19.254,48.48,48.48,0,1,0,79.935.61Z" transform="translate(-1846.258 -469.075)"/>
      <path id="Pfad_132" data-name="Pfad 132" class="cls-2" d="M1946.014,525.592c7.362,11.6,7.634,31.371-6.757,44.483a35.832,35.832,0,1,1-5.864-57.252c-.857.743-1.686,1.392-2.432,2.125-2.13,2.089-4.246,4.194-6.322,6.336a1.4,1.4,0,0,1-1.731.4,23.243,23.243,0,1,0,15.431,21.652c-.043-2.581-.9-5.145-1.327-7.726a1.723,1.723,0,0,1,.255-1.3c2.765-2.842,5.583-5.632,8.388-8.434A3.6,3.6,0,0,1,1946.014,525.592Z" transform="translate(-1853.982 -476.809)"/>
      <path id="Pfad_133" data-name="Pfad 133" class="cls-2" d="M1976.875,467.36c-.369,4.723-.716,9.154-1.079,13.791l13.746-1.066c-.413.477-.643.77-.9,1.036-3.841,3.985-7.669,7.981-11.55,11.926a3.338,3.338,0,0,1-1.793.879c-1.55.224-3.136.2-4.684.428a3.791,3.791,0,0,0-2.017.921q-17.363,17.272-34.677,34.6a2.143,2.143,0,0,0-.708,2.226,10.517,10.517,0,0,1-8.136,12.4,10.625,10.625,0,0,1-12.566-7.794,10.5,10.5,0,0,1,7.543-12.778,14.787,14.787,0,0,1,4.759-.171,2.4,2.4,0,0,0,2.239-.69q13.822-13.9,27.712-27.739c2.359-2.359,4.741-4.7,7.054-7.1a3.666,3.666,0,0,0,.784-1.724,8.252,8.252,0,0,0,.206-2.456c-.232-2.553.958-4.273,2.8-5.924,3.5-3.146,6.807-6.509,10.2-9.78C1976.072,468.081,1976.359,467.833,1976.875,467.36Z" transform="translate(-1861.68 -467.36)"/>
    </g>
  </g>
</svg>
